<?xml version="1.0" encoding="UTF-8"?>
<svg id="Layer_1" data-name="Layer 1" xmlns="http://www.w3.org/2000/svg" width="200" height="200" viewBox="0 0 200 200">
  <defs>
    <style>
      .cls-1 {
        fill: #fff;
      }
    </style>
  </defs>
  <path d="m146.54,46.43c3.68,2.58,6.56,4.59,9.66,6.76.66-.69,1.21-1.36,1.84-1.92,2.17-1.91,4.36-1.16,5.13,1.66.45,1.63,1.18,2.88,3.36,2.04,2.77-1.08,2.81-.98,5.03,1.29,2.85-.86,8.02.97,8.04,3.61.02,2.89,1.13,4.36,2.69,6.38,1.38,1.8-.82,4.24-3.26,3.84-1.8-.3-3.53-1.08-5.33-1.28-1.6-.18-3.25.15-4.69.24,1.31,4.37,2.57,8.61,3.91,13.09.52-.34,1.09-.9,1.77-1.11,1.27-.39,2.61-.57,3.91-.84.2,1.36.51,2.71.56,4.07.03.93-.31,1.87-.61,3.52,1.55-1.03,2.32-1.92,3.17-2,1.24-.13,2.73.01,3.72.65.51.33.28,2,.17,3.04-.26,2.46-1.55,4.96,1.13,7.09.6.48.65,2.37.21,3.25-.66,1.34-1.74,2.72-3.79,1.82-3.14-1.38-6.33-2.65-9.28-3.87-1.92,7.48-3.76,14.61-5.6,21.79.4-.14,1.35-.44,2.27-.82,1.54-.63,3.01-1.47,4.6-1.9.98-.26,2.97-.13,3.05.18.34,1.42.44,3.02.09,4.43-.26,1.05-1.39,1.87-2.03,2.86-.34.52-.81,1.49-.6,1.74,1.88,2.23.35,4.35-.48,6.13-.61,1.31-2.65,3.01-3.78,2.82-2.43-.39-3.02.89-3.1,2.44-.14,2.93-2.07,3.85-4.3,3.86-2.73.01-3.4-2.17-3.63-4.55-.14-1.5-.58-2.98-.98-4.93-3.06,3.39-5.7,6.4-8.46,9.31-.87.93-2.04,1.58-3.06,2.36-1.19.91-3.19,1.72-3.34,2.78-.2,1.42.81,3.21,1.76,4.51,1.01,1.41,2.65,2.35,3.81,3.68.76.88,1.87,2.46,1.55,3.07-.58,1.14-1.99,2.02-3.25,2.62-1.9.9-4.01,1.37-5.93,2.24-.67.3-1.01,1.27-1.58,1.85-.99,1.01-1.92,2.5-3.12,2.81-1.37.34-3.14-.13-4.44-.82-.41-.22-.03-2.32.31-3.46.59-1.97,1.55-3.84,2.12-5.82.19-.65-.07-1.87-.55-2.19-1.01-.67-2.49-1.53-3.43-1.23-4.44,1.45-8.74,3.3-13.13,4.91-1.14.42-2.43.45-4.3.76,1.04,1.45,1.85,2.59,2.65,3.73.78,1.12,1.81,2.15,2.27,3.38,1.38,3.73-.02,6.15-3.94,6.72-.72.11-1.62-1.06-2.45-1.63-.88-.6-2.04-1.87-2.6-1.65-1.27.51-2.9,1.57-3.22,2.73-1.1,3.93-4.61,6.22-8.01,4.17-2.99-1.8-5.15-.26-7.69.54-1.62.51-4.21,1.44-4.95.72-3.63-3.51-3.78-4.57-1.67-7.46,2.23-3.05,4.81-5.84,7.62-9.21-6.03-1.03-11.3-1.93-16.97-2.9-.06.77-.2,1.77-.19,2.77.03,4.48-1.35,6-5.8,6.52-.58.07-1.11.69-1.64,1.09-1.44,1.09-2.85,3.19-4.77,1.6-.91-.76-.76-2.81-1.25-5.02-1.03-.25-3.02-.47-4.75-1.27-1.26-.59-2.72-1.81-3.02-3.01-.21-.81,1.23-2.5,2.31-3.08,2.67-1.43,5.56-2.45,8.86-3.84-3.79-2.34-7.09-4.38-10.42-6.44-2.71,1.83-3.94,4.67-4.34,8.1-.41,3.54-3.16,5.61-5.66,7.67-.49.4-2.21.18-2.59-.33-.99-1.3-2.47-3.26-2.09-4.36,1.06-3.03-.86-3.92-2.69-4.77-1.47-.68-3.29-.56-4.83-1.13-1-.37-1.84-1.29-2.65-2.07-1.23-1.18-2.2-2.7-3.58-3.65-2.7-1.88-2.82-2.38-.25-4.49.45-.37.91-.72,1.47-1.17-1.06-2.67-1.96-4.99-5.47-5.43-1.39-.17-2.86-2.05-3.64-3.5-.25-.48,1.38-2.59,2.51-3.03,1.81-.7,3.94-.95,5.89-.82,3.47.22,6.92.86,10.95,1.4-1.12-3.23-1.95-5.61-2.9-8.36-.44-.15-1.29-.38-2.08-.72-1.74-.75-2.59-2.02-1.39-3.74,1.6-2.3,1.85-4.66.86-7.44-3.48-.22-5.8,2.17-7.89,4.34-2.87,2.98-6.29,4.43-10.19,4.93-1.48.19-3.06-.38-5.12-.68,1.38-2.25,2.3-3.75,3.19-5.21q-3.24-3.64-.14-8.68c-3.73-2.83-3.61-4.03.51-6.44,2.99-1.74,5.83-1.48,8.61.45.73.51,1.4,1.14,2.19,1.51,2.43,1.14,3.82.35,4.33-2.35.11-.58.23-1.15.38-1.88-2.47-.59-3.17-2.12-2.23-4.41.93-2.27,3.38-2.73,8.86-1.39.93-3.07,1.87-6.17,2.92-9.62-2.96.43-5.24.81-7.54,1.08-.97.12-2.05.26-2.93-.05-1.03-.35-2.33-.99-2.69-1.85-.26-.61.61-2.32,1.36-2.63,2.74-1.13,2.85-3.56,3.46-5.88-1.3-1.38-4.99-.75-4.01-3.98.48-1.57,2.17-2.77,3.57-4.46-1.53-3.62-.28-5.69,4.67-7.07,1.44-.4,2.67-1.58,4-2.39,1.9-1.17,3.36-.75,4.46,1.17,1.6,2.8,3.31,5.54,4.8,8.39,1.07,2.04,1.97,1.87,3.26.06-.35-.39-.76-.68-.95-1.09-.55-1.22-1.01-2.49-1.51-3.74,1.63-.49,3.54-1.78,4.81-1.31,2.13.79,3.39.36,5.03-.86,3.7-2.77,7.58-5.3,11.36-7.96,1-.71,1.9-1.56,3.54-2.93-3.61-.78-6.33-1.5-9.1-1.91-2.53-.38-3.8-2.18-3.89-4.17-.05-1.13,1.79-2.36,2.82-3.51.38-.42,1.11-.65,1.29-1.11,1.29-3.32,2.23-4.14,5.33-3.03,2.61.94,4.5.34,6.67-1.02,4.03-2.54,4.67-1.77,7.99,1.62,2.3,2.35,3.34,4.59,3.26,7.3,7.1-1.18,14.07-2.34,21.3-3.54-1.28-2.16-2.97-4.7-4.32-7.41-.89-1.8-1.52-3.81-1.74-5.79-.05-.42,2.23-1.58,3.4-1.52,1.71.08,3.35,1.24,5.07,1.41,2.32.23,4.69,1.11,7.07-.46.69-.45,2.28.47,3.46.76-.29,1.14-.38,2.38-.93,3.38-.85,1.54-2.01,2.92-3.03,4.35,3.92,3.26,3.98,3.26,6.85-.32,1.6-2,6.21-.85,7.26,2.04.55,1.53,2.18,3.32,0,5.05-.23.18.06,1.68.48,1.91,2.42,1.32,4.94,2.45,7.44,3.62,1.76.82,2.68-.09,2.9-1.71.31-2.25.53-4.52.56-6.78.03-3.31,1.16-3.93,4.14-2.79,2.55.98,5.28,1.33,6.34,4.44.1.3,1.55-.03,2.16.31,1.29.72,2.44,1.7,3.65,2.57-.9,1.12-1.58,2.66-2.75,3.26-2.07,1.08-4.46,1.51-6.65,2.38-.89.35-1.59,1.15-2.92,2.16Zm-99.67,95.63c-1.93-2.38-3.59-4.42-5.41-6.66-2.36,3.33-4.53,6.41-6.72,9.51,4.05-.95,8.11-1.9,12.13-2.85Zm53.36,18.96c.66,1.73,1.17,3.07,1.68,4.41,1.46-1.21,2.92-2.42,4.38-3.63-.19-.26-.38-.52-.57-.78h-5.49Z"/>
  <path class="cls-1" d="m46.87,142.06c-4.02.94-8.09,1.9-12.13,2.85,2.19-3.1,4.37-6.18,6.72-9.51,1.82,2.25,3.48,4.28,5.41,6.66Z"/>
  <path class="cls-1" d="m100.23,161.02h5.49c.19.26.38.52.57.78-1.46,1.21-2.92,2.42-4.38,3.63-.51-1.34-1.02-2.68-1.68-4.41Z"/>
</svg>