<?xml version="1.0" encoding="UTF-8"?>
<svg id="Layer_1" data-name="Layer 1" xmlns="http://www.w3.org/2000/svg" width="200" height="200" viewBox="0 0 200 200">
  <path d="m93.69,170.3c-1.97.66-3.34.97-4.55,1.6-.81.42-1.57,1.18-2.03,1.98-1.74,2.99-3.17,6.17-5.09,9.03-.71,1.05-2.44,1.41-3.71,2.09-.39-1.29-1.23-2.63-1.08-3.85.43-3.42,1.17-6.82,1.99-10.18.65-2.69-.12-4.18-2.94-4.35-3.34-.2-5.92-1.82-8.36-3.99-4.49-4-4.68-3.9-8.94.23-1.08,1.05-2.29,2.04-3.6,2.76-.66.36-2.09.38-2.44-.04-.52-.63-.74-1.93-.45-2.71.52-1.4,1.44-2.68,2.33-3.92,1.34-1.87,1.12-3.11-1.17-3.88-2.03-.68-3.98-1.61-6.03-2.18-4.63-1.3-7.82-4.21-10-8.38-.9-1.72-1.81-3.43-2.6-5.19-.99-2.21-2.27-3.52-5.03-3.58-3.82-.09-5-2.61-2.85-5.68,1.19-1.7,1-3.04.05-4.75-1.38-2.48-2.69-5.06-3.56-7.75-.68-2.13-1.77-2.81-3.78-2.41-3.3.66-6.57,1.43-9.88,2-1.59.28-3.26.43-4.85.26-.86-.09-2.05-.83-2.32-1.57-.27-.72.15-2.14.77-2.65,1.46-1.2,3.13-2.26,4.88-2.98,3.39-1.39,6.89-2.5,10.35-3.72,2.59-.91,4.13-2.51,3.84-5.46-.09-.91-.12-1.85.01-2.75.66-4.47-.27-7.73-5.44-8.77-1.14-.23-2.51-2.21-2.67-3.52-.13-1.12,1.27-2.47,2.11-3.64.31-.43.95-.63,1.6-1.04-1.48-.69-2.71-1.26-3.95-1.83-.03-.37-.06-.75-.09-1.12,2.24-.53,4.45-1.31,6.72-1.53,2.43-.23,3.48-.99,3.67-3.66.39-5.31,4.08-8.37,8.35-10.94,3.48-2.1,6.84-4.41,10.21-6.69,1.2-.82,2.18-1.74,1.24-3.54-.82-1.57.28-2.12,1.73-2.35,1.16-.18,6.54-6.45,6.51-7.55-.01-.45-.33-.95-.63-1.32-.51-.63-1.3-1.1-1.64-1.79-.65-1.34-1.08-2.8-1.6-4.2,1.53-.11,3.39-.84,4.53-.23,3.41,1.85,5.66,1.12,8.56-1.36,2.12-1.81,5.5-2.47,8.43-2.93,2.77-.43,5.68.02,8.53.16,2.11.1,3.03-.47,2.44-2.84-.27-1.07.36-2.37.59-3.57,1.28.34,2.99.28,3.77,1.1,2.21,2.32,4.47,3.59,7.47,1.76,2.28-1.39,4.46-2.95,6.61-4.52,1.99-1.45,3.67-3.57,5.87-4.42,3.77-1.46,4.53-.83,6.38,2.83.35.69.9,1.65,1.5,1.77,4.81.96,9.2,3.17,14.56,2.55,4.53-.52,9.45.9,13.95,2.27,3.05.93,5.21.83,7.49-1.29,1.48-1.38,3.22-2.47,4.84-3.69.24.19.48.38.72.58-.11.74-.1,1.52-.36,2.21-.87,2.28-2.62,4.59.64,6.49.27.16.47.77.4,1.1-.95,4.08,2.15,4.49,4.77,5.68,3.2,1.46,6.25,3.28,9.2,5.21,2.05,1.34,3.97,1.92,6.26.83,1.38-.66,2.75-1.5,4.21-1.75,1.13-.19,2.4.42,3.61.68-.47,1.13-.91,2.26-1.43,3.37-.11.24-.49.34-.73.53-1.32,1.05-3.7,2.06-3.75,3.17-.13,2.87.61,5.82,1.36,8.64.19.74,1.64,1.35,2.62,1.61,1.05.28,2.26-.1,3.33.14.8.18,1.84.76,2.09,1.41.21.55-.38,1.82-.97,2.17-2.63,1.55-2.85,3.37-1.77,6.15.94,2.41.88,5.19,1.42,7.77.18.87.67,1.85,1.33,2.41.86.73,2.03,1.08,3.07,1.6-.84.9-1.67,1.81-2.83,3.05,2.44,1.1,4.88,2.2,7.33,3.3-.02.37-.04.74-.06,1.1-1.48.28-2.95.69-4.44.8-1.7.12-2.67.74-2.74,2.55-.11,2.64-.31,5.27-.41,7.91-.14,3.37-.13,6.74-.39,10.09-.06.7-1.04,1.33-1.62,1.97-1.03,1.14-2.29,2.13-3.1,3.41-4.49,7.12-8.85,14.31-13.32,21.44-.52.84-1.4,1.48-2.18,2.13-3.8,3.17-3.7,3.13-2.35,7.76.31,1.05.04,2.97-.67,3.45-.91.62-2.67.55-3.82.13-1.65-.61-3.04-3.08-4.87-.59-1,1.36-1.89,3.06-2.1,4.7-.38,3.08-1.64,3.81-4.44,2.43-1.2-.59-3.01-.91-4.16-.44-4.5,1.86-8.91,3.96-13.19,6.28-.99.54-1.78,2.22-1.89,3.45-.26,2.83.02,5.7-.06,8.55-.03,1.3-.13,2.72-.68,3.85-.41.84-1.57,1.7-2.47,1.78-.65.06-1.76-1.02-2.06-1.82-.82-2.18-1.3-4.49-1.97-6.74-1.24-4.2-3.01-5.14-6.94-3.17-2.22,1.11-3.86,1.29-6.15-.03-2.98-1.72-4.47-.68-5.68,2.61-.9,2.45-1.92,4.93-3.35,7.09-.6.92-2.58,1.67-3.58,1.37-1.03-.31-2.15-1.94-2.33-3.12-.36-2.36-.11-4.81-.11-7.35Z"/>
</svg>