<?xml version="1.0" encoding="UTF-8"?>
<svg id="Layer_1" data-name="Layer 1" xmlns="http://www.w3.org/2000/svg" width="200" height="200" viewBox="0 0 200 200">
  <path d="m178.88,101.95c-2.24,1.18-3.24,1.7-4.77,2.5,6.68.58,8.59,3.23,7.75,8.15-8.41.72-16.5,1.41-24.45,2.08,2.46,6.66,4.8,13.02,7.14,19.37,1.87,5.08,4.81,9.03,10.57,10.08.43.08.81.52,1.18.83.1.08.07.31.1.47-6.48,1.49-9.86-.72-13.3-8.44-4.05-9.09-9.27-16.36-17.3-22.08-2.55-1.82-4.08-2.97-7.61-1.95-5.71,1.64-11.22,3.02-15.22,8.84,7.33,7.72,11.38,18.8,22.74,23.39-6.79,1.76-6.73,1.71-13.79-7.42-4.91-6.36-10.01-12.56-15.29-19.17-4.41,4.13-9.44,3.05-13.76,4.07-7.2,1.71-8.5-2.99-11.61-6.76-5.51,10.26-10.7,19.91-16.11,29.98h-4.35c2.44-3.92,5.03-8.09,7.63-12.26-8.35,1.58-15.19,4.6-21.1,9.94-2.27,2.05-6.29,2.18-9.51,3.19-.19-.56-.39-1.12-.58-1.67,2.87-1.21,5.74-2.41,8.61-3.62-.1-.3-.2-.6-.3-.9-4.69.43-9.44,1.53-14.07,1.14-6.01-.51-6.83-5.91-8-11.31-8.45,7.64-16.14,16.11-28.96,14.89.97-.59,1.89-1.57,2.92-1.7,11.79-1.53,18.13-10.96,26.25-17.78.35-.3.73-.84.72-1.26-.21-8.01,5.27-13.07,10.03-18.22,6.36-6.88,13.22-13.32,20.11-19.69,1.06-.98,3.75-1.29,5.1-.67,4,1.85,7.7,4.32,11.87,6.75.43-.97,1.16-2.38,1.7-3.87,1.81-4.88,2.49-5.23,6.03-1.59,4.67,4.8,10.57,8.85,12.43,17.13,3.64-4.31,7.28-8.63,11.3-13.38,1.38,1.72,2.68,3.33,3.97,4.93,6.27-.27,12.78-2.71,18.61,2.03.54.44,2.66-.08,3.26-.8,5.98-7.28,9.28-8.42,18.31-5.96,1.37.37,2.75.71,4.96,1.28-1.05-3.32-2.4-5.9-2.54-8.54-.13-2.52.12-6.13,1.73-7.5,8.83-7.53,18.1-14.54,27.27-21.67.83-.65,2.02-.84,3.14-1.28.45,5.44-3.76,6.81-6.93,9.11-7.13,5.15-14.28,10.3-21.19,15.72-1.15.91-1.75,3.28-1.61,4.88.25,2.93,1.11,5.85,2.01,8.68.33,1.03,1.33,2.04,2.29,2.63,3.61,2.26,7.33,4.34,12.6,7.42Zm-116.35-5.23c3.46-.64,6.2-1.14,9.28-1.7-4.85-5.92-5.75-5.77-9.28,1.7Z"/>
</svg>