<?xml version="1.0" encoding="UTF-8"?>
<svg id="Layer_1" data-name="Layer 1" xmlns="http://www.w3.org/2000/svg" width="200" height="200" viewBox="0 0 200 200">
  <path d="m168.09,48.96c2.89-1,3.94,1.3,4.79,3.69.75,2.12.24,5.16,4.09,4.77.28-.03,1.43,2.58,1.07,3.55-.9,2.47-2.21,4.86-3.8,6.96-.7.93-2.45,1.08-4.02,1.69-.71,2.9-1.31,6.38-6.19,5.18-.23-.06-1.81,3.49-2,5.43-.37,3.75-.92,4.24-4.29,2.42-1.66-.89-3.26-1.9-5.62-3.28.41,1.32.47,2.27.96,2.85.49.56,1.4.79,2.15,1.09q4.38,1.75,2.45,5.92c2.6,2,5.11,3.84,8.87,3.31,2.58-.36,5.46-.24,7.41,3.25-1.75.96-3.46,1.9-5.44,2.99.17.33.37,1.15.89,1.61,2.3,2.05,4.97,3.76,6.92,6.08.8.95.7,3.46,0,4.7-1.69,3.03-3.29,5.54.03,8.65,1.5,1.41-.07,3.85-2.48,4.09-1.26.13-2.75-.5-3.78-.02-1.35.63-3.51,2.52-3.31,2.98,1.74,3.94-2.46,5.9-2.72,9.09-.15,1.8-1.1,3.53-1.24,5.32-.26,3.45-1.61,4.45-5.02,3.29-3.75-1.28-5.01-.52-5.27,3.41-.25,3.77-.04,7.59-.53,11.32-.44,3.3-2.03,6.03-5.34,7.69-1.32.66-2.19,2.44-2.98,3.86-1.74,3.09-4.26,4.82-7.8,5.02-2.19.13-4.39.22-6.67.34-.31,1.31-.75,2.42-.8,3.55-.15,3.15-2.27,3.41-4.62,3.25-2.2-.15-3.18-1.08-2.14-3.46,1-2.29,1.71-4.71,2.59-7.22-4.4-.35-8.22-.58-12.01-1.02-.92-.11-2.18-.69-2.58-1.43-1.82-3.37-4.14-1.86-6.44-.89-2.65,1.12-5.25,2.36-7.95,3.34-.75.27-2.03.11-2.61-.38-1.96-1.65-4.17-3.29-5.41-5.44-.91-1.59-.46-3.96-.66-6.58.06.02-.64-.29-1.36-.54-4.32-1.48-5.19-4.73-2-7.83,1.3-1.27,2.31-2.24,1.62-4.47-.29-.93,1.41-2.66,2.48-3.76.76-.79,1.97-1.14,3.19-1.8-4.49-1.51-5.69-6.77-2.84-10.58.96-1.29,1.37-3.01,2.37-4.25,1.01-1.25,2.3-2.6,3.75-3.1,2.2-.77,2.58-1.98,1.54-3.64-1.26-2.02-1.8-5.01-5.33-4.58-.53.06-1.61-.83-1.66-1.36-.08-.79.32-2.15.89-2.4,2.41-1.04,3.26-2.99,4.05-5.25.31-.88,1.62-1.94,2.53-1.99,2.85-.19,3.21-2.16,3.13-4.13-.08-2.23.27-3.87,2.55-4.75.43-.17.75-.96.88-1.52.5-2.14,1.32-3.23,3.97-3.33,1.8-.07,3.53-2,5.11-3.35-7.8-.12-12.61,4.76-17.03,10-2.26,2.68-4.32,3.86-7.07,1.56-5.61,2.41-10.99,4.52-17.09,2.84-.78-.21-1.92.42-2.73.93-1.37.86-2.52,2.11-3.94,2.84-.84.43-2.53.6-2.96.12-.68-.77-.95-2.24-.78-3.32.2-1.29,1.04-2.47,1.21-2.85-5.66-2.72-11.1-5.03-16.22-7.91-2.38-1.34-4.43-3.58-6.02-5.84-.57-.81.68-2.88,1.3-5.12-1.06-.53-2.42-1.5-3.93-1.92-5.04-1.41-5.57-2.09-5.31-7.45.03-.62-.42-1.26-.56-1.65-1.82.44-3.49,1.27-5.06,1.11-2.13-.21-3.46-1.29-2.59-4.1,1.44-4.71-1.18-8.6-3.41-12.93.89-.67,1.89-1.65,3.08-2.26,3.63-1.88,5.04-4.95,5.24-8.85.26-5.1.43-4.98,5.28-4.37,1.46.18,3.59-.86,4.59-2.03,2.61-3.05,5.19-5.24,9.59-4.02,2.17.6,7.75-2.97,8.91-5.59.94-2.11,2.35-2.78,4.56-3.09,2.19-.31,4.43-1.18,6.36-2.31,3.5-2.06,5.35-1.77,8.11,1.29.91,1.01,2.65,1.76,4.01,1.76,2.69,0,4.34.82,5.46,3.36,1.21,2.76,3.42,4.23,6.25,5.8,4.13,2.29,7.5.7,11.25.56,1.48-.05,2.99,1.05,4.49,1.63-1.02,1.2-1.88,2.61-3.12,3.53-1.33.99-3.01,1.51-4.59,2.25,1.28,2.57,2.33,4.69,3.94,7.94.92-2.25,1.88-3.72,2.09-5.29.25-1.93.4-3.51,2.86-3.49.44,0,1.15-.1,1.29-.38,2.15-4.22,5.6-2.62,8.85-2.08,3.63.61,4.55-.51,4.14-4.24-.18-1.58.31-3.23.5-4.86,1.74.38,3.54.58,5.2,1.18,2.79,1,5.43,3.02,8.23,3.2,3.07.2,6.11-.86,9.13,1.04.95.6,2.72-.19,4.12-.22.91-.02,2.22-.17,2.67.34,3.84,4.35,9.73,5.97,13.55,10.28,1.05,1.18,1.74,2.68,2.76,4.29Zm-39.6,60.27c3.82,1.59,6.92,2.4,9.74-.4.21-.21.7-.34.99-.25,3.07.91,5.03-.84,7.3-2.52,2.66-1.97,3.03-4,1.23-6.48-1.12-1.55-2.58-2.84-4.27-4.67,2.31-1.89,4.46-3.65,6.62-5.41-.14-.26-.28-.53-.42-.79-1.12.36-2.47.44-3.31,1.13-2.57,2.11-5.02,4.38-7.36,6.75-1.75,1.77-2.89,3.98-6.22,2.57-1.5-.64-4.14-.23-4.28,2.61-.12,2.52-.02,5.04-.02,7.44Zm3.43-20.77c-2.26-3.36-5.7-5.38-2.79-8.9-1.42-.21-3,.04-3.71-.63-1.82-1.74-3.83-2.05-5.63-.79-2.13,1.5-2.63,3.88-1.59,6.76,3.7-1.85,5.99-1.28,6.72,3.14.19,1.16,2.12,2.69,3.39,2.83,1.07.12,2.34-1.51,3.6-2.42Zm-6.75,39.14c4.34-.76,8.87-.95,10.32-6.13-.78-1.2-1.5-2.33-2.32-3.6-1.1,1.18-2.32,2.5-3.55,3.81-2.19,2.33-4.54,1.84-5.63-1.18-.17-.48-.39-.95-.61-1.46-3.97,2.37-4.02,2.47-3.14,5.48,4.62-1.4,5.18-1.08,4.92,3.07Z"/>
</svg>