<?xml version="1.0" encoding="UTF-8"?>
<svg id="Layer_1" data-name="Layer 1" xmlns="http://www.w3.org/2000/svg" width="200" height="200" viewBox="0 0 200 200">
  <path d="m173.84,100.01c-.07,41.12-33.52,73.68-73.81,73.57-40.17-.11-73.58-32.75-73.37-73.99.21-40.97,33.68-73.38,73.95-73.19,40.03.19,73.19,32.64,73.23,73.61Zm-20.89-33.41c-.19.03-.41-.02-.58.2-.01.07-.05.16-.05.26,0,.5,0,1,0,1.5,0,.2,0,.4-.02.6-.02.22-.15.31-.35.29-.19-.02-.33-.16-.26-.37.13-.4-.02-.79-.03-1.18-.01-.43-.51-.68-.46-1.14,0-.03-.06-.08-.09-.11-.04-.04-.07-.07-.12-.1-.15-.09-.29-.22-.45-.26-.48-.12-.85-.43-1.24-.69-.48-.32-.93-.7-1.44-.96-.75-.38-1.42-.84-1.99-1.45-.18-.19-.37-.42-.7-.46-.28.17-.62.31-.87.54-.43.38-.92.45-1.46.49-.51.04-.94-.05-1.26-.47-.04-.05-.13-.07-.18-.1-.23.05-.45.1-.67.14-.33.07-1.41.86-1.54,1.13-.02.04-.02.1-.04.14-.17.56-.49,1.04-.92,1.43-.26.23-.51.48-.78.7-.26.21-.42.48-.55.79-.22.53-.46,1.06-.69,1.58-.19.43-.47.75-.91.95-.36.17-.71.38-1.05.58-.27.16-.56.23-.87.17-.7-.14-1.4-.08-2.1-.1-.2,0-.39-.03-.61-.05-.12-.24-.25-.45-.35-.68-.21-.49-.15-.72.29-1.03.24-.17.52-.3.64-.57,0-.28-.07-.56.01-.77.2-.52.12-1.08.36-1.59.21-.46-.06-.83-.57-.9-.45-.07-.88-.19-1.26-.45-.14-.09-.31-.13-.45-.19-.04-.23-.08-.44.07-.6.25-.29.54-.55.94-.57.55-.03,1.1-.11,1.64.05.35.1.69.11,1.03-.01.4-.13.79-.08,1.17.07.18.08.38.13.57.19.43.14.78.02,1-.28,0-.45,0-.83,0-1.2-.01-.67-.02-1.35-.05-2.02-.01-.39-.22-.65-.6-.78-.26-.09-.52-.18-.78-.27-.24-.09-.44-.23-.57-.46-.17-.27-.09-.51.21-.57.56-.11,1.13-.23,1.7-.29.75-.08,1.39-.36,1.97-.84.33-.27.69-.5,1.05-.72.88-.53,1.77-1.03,2.66-1.56.37-.22.68-.51.95-.84.22-.27.45-.58.74-.72.41-.19.81-.49,1.33-.37.37.08.74.03,1.04-.26.32-.31.73-.29,1.13-.26.2.01.4.07.59.05.82-.12,1.59-.07,2.32.37.41.25.81.2,1.2-.07.41-.29.86-.39,1.35-.33.24.03.49.05.73-.06-.31-.52-1.35-1.63-2.02-2.16-.37.11-.7.33-1.04.54-.35.22-.66.16-.98-.05-.38-.25-.57-.6-.61-1.06-.06-.6-.18-1.19-.51-1.71-.2-.31-.46-.45-.83-.34-.46.13-.91.27-1.37.38-.34.09-.68.18-1.03.21-.44.03-.85-.08-1.1-.51-.38-.68-.75-1.36-.75-2.17,0-.25-.04-.5-.09-.74-.06-.32.06-.53.33-.69.19-.11.43-.16.51-.48-.22-.17-.45-.36-.69-.53-4.81-3.57-10-6.49-15.54-8.75-.79-.32-1.59-.61-2.38-.93-.3-.12-.57-.1-.87.02-.82.32-1.58.76-2.28,1.28-.09.07-.2.2-.19.3.03.43-.23.69-.5.96-.29.29-.26.73.06.98.1.08.22.11.33.18.15.1.18.26.07.39-.33.36-.73.63-1.21.7-.34.05-.7.04-1.05,0-.29-.04-.54,0-.81.07-.79.24-1.58.49-2.38.68-.82.19-1.58.46-2.2,1.05-.09.09-.2.16-.3.22-.11.06-.23.09-.34.13-.21.07-.44.1-.63.19-.99.47-2.04.67-3.12.79-.14.02-.29,0-.39,0-.13-.16-.22-.27-.33-.42-.13.11-.25.17-.31.27-.5.82-1.25,1.44-1.84,2.18-.28.35-.6.58-1.06.6-.17,0-.34.08-.51.14-.29.11-.56.26-.66.57-.14.42-.49.56-.85.66-1.03.28-2.08.33-3.13.23-.5-.05-.92-.31-1.18-.72-.35-.56-.55-1.19-.45-1.86.06-.44.21-.88.33-1.31.09-.32.29-.55.6-.73.67-.37.78-.4.69-1.31,0-.05.03-.09.02-.08.23-.27.45-.47.6-.73.19-.33.41-.59.72-.83.43-.34.77-.79.48-1.43-.08-.18-.04-.39.13-.55.09-.09.18-.18.25-.28.3-.42.25-.86-.17-1.18-.57-.45-1.15-.89-1.89-1.04-.19-.04-.38-.13-.57-.19-.29-.08-.45-.28-.56-.55-.2-.49-.34-.98-.26-1.49-.28-.21-.57-.17-.83-.15-.9.07-1.8.15-2.69.25-.37.04-.74.11-1.1,0-.26-.7-.02-1.19.51-1.59.28-.21.55-.29.91-.21.59.13,1.18.23,1.78.28.62.05,1.25.05,1.88.03.32-.01.64-.1.95-.19.2-.06.34-.22.22-.52-.35,0-.72-.02-1.09-.02-2.23,0-4.46.14-6.68.37-.67.07-1.35.1-1.99.37-.57.24-1.16.46-1.74.69-.14.05-.29.08-.42.15-.28.16-.55.34-.82.51-.08.37-.43.37-.68.51-.3.16-.58.11-.86-.02-.07-.03-.12-.09-.19-.11-.53-.2-1.04-.42-1.65-.23-.34.11-.76.1-1.11.02-.39-.09-.74-.05-1.1.05-.46.13-.92.25-1.38.38-.11.03-.21.09-.32.14.14.25.35.26.55.28.37.02.75.02,1.13.02.9,0,1.8-.03,2.7-.04.17,0,.36.03.42.31-.14.21-.29.46-.57.64-.79-.11-1.6.08-2.37-.22-.07-.03-.15,0-.22,0-.52,0-1.05,0-1.57-.01-.6-.01-1.19.03-1.79-.12-.5-.13-1.04-.1-1.55.12-.51.22-1.03.38-1.55.57-.08.03-.2.03-.2.19.18.04.37.08.55.14.05.02.1.12.09.19,0,.06-.05.16-.11.18-.11.04-.24.06-.36.05-.2-.02-.4-.03-.59.07-.35.18-.72.35-1.06.55-.25.15-.49.25-.79.18-.1-.14-.2-.28-.31-.43-.95.35-1.86.78-2.76,1.2-2.07.97-4.08,2.02-6.04,3.2-.06.04-.1.1-.16.17.07.05.13.11.19.12.75.03,1.5.05,2.25.06.32,0,.58-.16.77-.41.41-.55.91-1,1.41-1.45.2-.18.36-.42.53-.63.11-.13.21-.29.33-.41.23-.22.51-.3.83-.3.27,0,.37.23.52.39.7.75,1.4,1.5,2.1,2.25.15.16.31.33.48.48.55.49.75.49,1.25-.04.1-.11.2-.22.3-.33.33-.35.72-.62,1.18-.79.64-.23,1.27-.45,1.91-.67.11-.04.23-.01.42-.02-.27.88-.51,1.69-.84,2.47-.07.16-.18.31-.3.43-.12.12-.27.23-.43.28-.5.15-1.02.27-1.52.4-.43.12-.88.22-1.3.37-.87.31-1.74.63-2.68.69-.12,0-.25.04-.37.06-.44.04-.81.24-1.15.52-.15.13-.3.26-.45.4-.34.31-.74.51-1.19.61-.29.06-.59.11-.89.16-.79.15-1.6.15-2.36.42-.31.11-.62.21-.94.26-.37.05-.58.26-.72.57-.17.39-.36.77-.53,1.16-.05.11-.09.24-.1.36-.07,1.04-.02,2.05.48,3,.09.16.2.29.38.34.22.06.44.12.66.14.45.05.9.08,1.35.09.29,0,.54.09.77.25.16.12.33.23.49.35.3.21.47.49.54.86.18.83.37,1.66.44,2.51.04.46.26.8.7.98.42.17.7-.03,1-.3,1.11-.97,2.24-1.93,3.36-2.89.21-.18.41-.37.56-.6.36-.54.74-1.08,1.02-1.66.42-.87.98-1.62,1.66-2.3.21-.21.39-.46.6-.67.17-.17.35-.37.57-.48.92-.47,1.77-1.04,2.58-1.64.81.38,1.61.74,2.4,1.11.25.12.51.22.79.2.75-.06,1.43.19,2.11.44.47.17.82.46,1,.94.06.16.16.31.23.47.45,1,.93,2,1.34,3.02.27.66.67,1.1,1.37,1.26.1.02.19.07.28.1.5.17.72.52.69,1.03-.01.25-.03.5-.07.75-.05.32-.21.52-.55.63-.69.21-1.38.46-2.05.74-.36.15-.72.36-1.02.61-.32.26-.66.46-1.06.54-.61.12-1.23.23-1.85.3-1.02.11-2.05.18-3.08.12-.26-.02-.49.04-.71.19-.45.31-.92.61-1.37.92-.16.11-.3.26-.44.4-.09.09-.18.21-.09.33.05.07.16.14.25.14.45-.02.91,0,1.34-.11.62-.17,1.13-.08,1.58.38.07.07.16.12.24.18.3.25.43.58.28.94-.15.36-.18.73-.24,1.1q-.19,1.2-1.2,1.94c-.52.39-1.09.61-1.73.67-.14.01-.28-.03-.37-.04.01-.42.06-.79.02-1.16-.04-.36-.08-.75-.4-1.02-.86.24-1.7.47-2.54.7-.12.03-.24.06-.36.11-.7.29-1.34.68-1.83,1.27-.14.17-.28.38-.46.48-.54.29-.85.76-1.14,1.27-.32.57-.81.95-1.43,1.16-.28.1-.57.19-.86.28-.66.22-1.33.45-1.99.67-.37.13-.65.36-.84.7-.17.31-.37.6-.53.91-.85,1.61-1.95,3.03-3.32,4.23-.26.23-.51.48-.74.75-.81.96-1.6,1.93-2.41,2.88-.22.26-.36.54-.38.87-.03.6-.08,1.2-.09,1.8-.02,1.13-.26,2.24-.48,3.34-.02.1-.12.19-.29.46-.03-.6-.39-.77-.67-1-.53-.43-.97-.93-1.17-1.61-.19-.62-.42-1.23-.65-1.84-.07-.18-.08-.41-.39-.48-.1.3-.38.32-.67.33-.43,0-.85.01-1.28,0-.35,0-.7-.08-1.01-.25-.54-.31-1.1-.29-1.67-.1-.48.16-.95.32-1.33.67-.23.21-.5.31-.83.27-.69-.1-1.4-.04-2.09-.08-.36-.02-.71.08-.99.3-.42.33-.9.54-1.37.78-.42.22-.83.46-1.24.7-.25.14-.42.34-.52.62-.18.5-.5.92-.83,1.33-.14.18-.29.35-.42.53-.35.5-.41,1.02-.07,1.55.19.3.29.63.39.97.43,1.47.96,2.89,1.68,4.23.07.02.12.04.16.04,1.01-.16,2.03-.32,3.04-.5.16-.03.35-.12.45-.24.51-.61,1.21-1.06,1.6-1.78.1-.18.27-.3.48-.32.49-.05.93.06,1.37.36-.08.13-.12.25-.2.33-.27.29-.36.63-.37,1.03,0,.53-.07,1.05-.11,1.57-.05.67-.24,1.28-.83,1.7-.11.08-.16.23-.25.37.48.46,1.05.65,1.61.85.32.11.63.16.96.05.35-.11.7-.04,1.04.04.09.02.21.07.26.14.28.44.67.83.67,1.4,0,.7,0,1.4.01,2.1,0,.27,0,.55,0,.86.72.71,1.47,1.41,2.3,2.02.16.11.35.18.45.23.41-.14.74-.27,1.08-.35,1.41-.32,1.12-.55,2.53.49.18.13.36.25.51.35.38-.09.57-.32.72-.59.13-.23.32-.38.56-.47.46-.19.91-.38,1.38-.58.29.26.58.57.91.82.6.46,1.07.64,1.28-.45.04-.19.06-.43.17-.56.47-.55,1.06-.92,1.82-.91.48.01.62.13.79.63.03.09.08.17.13.27.8.07,1.57.14,2.34.19.81.05,1.59.18,2.31.58.37.21.77.36,1.15.55.22.11.46.22.63.4.51.52,1.15.78,1.82,1,.31.1.62.21.92.34,1.41.58,1.22.33,2.15,1.73.28.43.63.66,1.1.81,1.26.4,2.51.85,3.77,1.29.31.11.6.25.89.4.38.2.6.53.61.97,0,.25,0,.5-.02.75-.03.3-.1.6-.1.89,0,.47-.15.88-.41,1.26-.33.47-.65.95-.96,1.44-.29.45-.23.87.21,1.18.34.25.72.46,1.1.63.42.19.87.24,1.32.09.33-.11.67-.21,1-.33.75-.28,1.49-.58,2.25-.87.31.14.61.26.9.41.65.33,1.33.58,2.02.79,1.75.53,3.48,1.12,5.26,1.54.36.08.64.25.87.54.57.73,1.17,1.44,1.75,2.16.14.18.27.36.39.55.07.13.15.28.15.42.01.55.07,1.11-.03,1.65-.17.96-.43,1.9-.67,2.85-.06.24-.15.49-.29.68-.28.39-.46.83-.62,1.28-.43,1.15-.92,2.27-1.54,3.34-.2.34-.34.72-.5,1.09-.13.3-.21.61-.36.9-.2.38-.28.77-.11,1.16.17.39.1.74-.08,1.08-.18.33-.39.64-.61.94-.26.37-.56.7-.81,1.08-.53.81-1.25,1.35-2.17,1.64-.36.11-.72.2-1.09.3-.31.08-.63.16-.94.24-.23.06-.41.18-.49.41-.2.58-.65.95-1.13,1.27-.53.37-1.1.7-1.67,1.01-.26.15-.43.34-.5.62-.07.29-.11.59-.17.88-.19.96-.44,1.91-.91,2.77-.64,1.17-1.48,2.2-2.28,3.26-.28.37-.62.59-1.1.48-.27-.06-.48.04-.69.2-.46.34-.94.66-1.41,1.01-.11.08-.18.22-.29.35.17.22.33.41.48.61.17.22.31.46.32.74.05,1.33-.46,2.75-1.82,3.34-.18.08-.37.17-.53.28-.13.09-.2.23-.15.39.05.19.12.38.2.59-.1.22-.19.46-.3.68-.32.62-.63,1.25-.98,1.86-.35.6-.38,1.18-.06,1.78.14.27.26.54.4.81.33.6.54,1.23.7,1.9.36,1.48.34,1.71-.28,3.11-.06.14-.13.27-.2.41-.12.27-.24.55-.36.82-.11.24-.22.49-.34.74.01.01.05.05.1.07.21.08.42.16.63.23,3.84,1.25,7.75,2.2,11.75,2.78,2.7.39,5.42.66,8.15.74,3.74.11,7.46-.02,11.18-.49,3.16-.39,6.28-.97,9.36-1.8,14.2-3.82,26.1-11.31,35.78-22.37.41-.47.5-.89.23-1.41-.06-.11-.09-.24-.16-.34-.07-.1-.15-.23-.25-.26-.46-.13-.67-.51-.89-.87-.62-1.01-1.06-2.1-1.22-3.29-.2-1.5-.65-2.93-1.1-4.37-.36-1.15-.87-2.24-1.57-3.23-.47-.67-.77-1.4-.85-2.22-.02-.2-.03-.41-.09-.59-.35-1.06-.12-2.08.15-3.1.09-.34.21-.67.49-.91.21-.19.33-.43.43-.69.08-.21.17-.42.29-.61.34-.57.41-1.17.31-1.81-.05-.35-.09-.7-.15-1.04-.15-.84-.3-1.68-.7-2.44-.3-.59-.49-1.21-.53-1.87-.02-.35-.14-.63-.35-.89-.29-.35-.58-.69-.88-1.03-.18-.21-.37-.41-.54-.62-.13-.16-.24-.34-.19-.55.11-.54-.12-.98-.35-1.42-.14-.27-.31-.54-.35-.82-.13-.79-.35-1.56-.41-2.36-.03-.36-.04-.7.21-.99.26-.31.24-.68.12-1-.23-.63-.53-1.24-1.1-1.65-.61.16-.71.16-1.24-.06-.49-.21-.91-.52-1.27-.92-.59-.66-1.31-1.16-2.11-1.55-.27-.13-.56-.25-.86-.21-.47.06-.94.12-1.4.24-.31.08-.61.24-.89.39-.15.08-.31.21-.36.35-.09.25-.26.35-.49.4-.17.04-.34.1-.5.15-.7.21-1.39.46-2.12.11-.02-.01-.05,0-.07,0-.77.04-1.55.07-2.32.13-.16.01-.32.12-.47.2-.39.22-.78.45-1.17.67-.46.26-.94.29-1.45.14-.53-.16-1.07-.26-1.6-.4-.16-.04-.32-.11-.49-.17.07-.27-.08-.39-.25-.51-.71-.55-1.27-1.22-1.61-2.04-.53-1.3-1.12-2.57-1.49-3.93-.11-.38-.21-.78-.65-.94-.58-.66-1.16-1.32-1.73-1.98-.08-.09-.15-.21-.17-.33-.25-1.21-.19-2.4.4-3.51.28-.52.4-1.06.38-1.66-.01-.54-.04-1.04-.52-1.41-.23-.18-.25-.47-.17-.76.08-.29.16-.59.17-.88.02-.39.16-.73.35-1.06.16-.28.36-.54.56-.8.2-.26.43-.49.62-.75.16-.21.35-.43.2-.74-.03-.05,0-.15.04-.21.38-.59.73-1.2,1.16-1.75.26-.33.57-.63.79-1,.1-.17.26-.31.39-.46.24-.28.49-.56.73-.85.16-.19.3-.4.44-.61.15-.22.33-.35.61-.38.16-.02.35-.08.47-.19.32-.28.62-.59.92-.88.19-.19.26-.42.22-.69-.04-.27-.07-.55-.11-.82-.04-.28.06-.49.3-.63.8-.49,1.45-1.15,2.14-1.77.09-.08.18-.17.29-.24.42-.29.74-.67.94-1.15.03-.07.09-.12.11-.14.46-.07.86.04,1.23.17.63.22,1.27.24,1.92.31.49.05.88-.08,1.25-.38.59-.47,1.19-.92,1.77-1.39.18-.15.37-.24.61-.23,1.42.06,2.85-.13,4.27.12.1.02.2,0,.3,0,.68,0,1.34-.1,2-.29.39-.11.77-.21,1.17-.28.31-.06.47.07.55.37.05.19.05.41.13.58.26.53.33,1.1.32,1.68,0,.22.03.45.04.68.01.24.1.43.31.56.51.32,1.01.64,1.61.8.63.16,1.23.41,1.82.75-.04.5.25.78.67.97.27.12.54.26.83.34.78.2,1.56.37,2.34.55.52.12.99.02,1.43-.28.52-.37.56-.46.41-1.12-.11-.46-.07-.89.27-1.24.23,0,.43-.01.62,0,1.57.1,1.3-.03,2.57.67.48.26,1.01.46,1.57.45.52,0,1.05,0,1.56-.17.25-.08.49-.09.73,0,.72.29,1.46.52,2.13.93.16.1.37.19.55.19.37,0,.74-.03,1.09-.19,0-.1.03-.18.01-.24-.51-1.38-1.02-2.77-1.56-4.15-.21-.53-.4-1.08-.76-1.61-.61.05-1.22-.01-1.85-.2-.16-.24-.34-.48-.48-.74-.32-.59-.62-1.2-.93-1.8-.06-.13-.11-.26-.21-.5.7.03,1.11-.36,1.52-.83-.09-.15-.18-.31-.25-.42-.39.04-.72.13-1.03.08-.39-.07-.74-.33-1.13-.37-.41-.04-.83.2-1.26.09-.41-.1-.68.07-.88.39-.15.23-.27.48-.4.72-.15.3-.11.58.09.85.18.24.36.48.53.73.19.26.24.56.12.86-.11.28-.26.54-.43.78-.19.27-.47.36-.8.29-.22-.05-.43-.11-.67-.16-.24-.58-.26-1.15-.04-1.74.17.02.3.03.5.05-.06-.16-.1-.28-.15-.38-.13-.24-.27-.47-.41-.72-.3-.01-.57-.02-.85-.03-.29,0-.52-.15-.54-.42-.04-.36-.31-.56-.48-.83.05-.18.1-.35.13-.52.1-.63-.15-1.1-.73-1.42-.26-.14-.58-.25-.76-.47-.3-.35-.69-.49-1.09-.63-.76-.26-1.48-.61-2.2-.95-.46-.22-.87-.48-1.11-.95-.02-.04-.08-.06-.17-.12-.27.06-.59-.08-.91.11-.03.24-.22.45-.15.7q.47.21.68.57c.07.11.12.22.19.32.99,1.56.7,1.31,2.26,2.34.33.22.7.39,1.05.59.19.11.38.23.57.35h.01Zm-80.11,99.05c-.04-.2-.04-.28-.07-.35-.4-.85-.6-1.75-.53-2.7.03-.43-.13-.77-.49-1.03-1.02-.74-1.87-1.67-2.74-2.56-.12-.12-.28-.24-.34-.39-.21-.58-.55-1.14-.55-1.78,0-.6-.01-1.21.06-1.8.15-1.3.25-2.59.12-3.9-.06-.55-.1-1.1-.18-1.64-.14-.94-.22-1.89-.53-2.8-.08-.23-.13-.49-.14-.74-.05-1.33-.04-2.65.34-3.95.11-.36.14-.73.11-1.11-.05-.67-.09-1.35-.1-2.02-.02-.93,0-1.85,0-2.78,0-.27-.04-.55-.12-.81-.31-.93-.64-1.84-.96-2.77-.25-.74-.52-1.47-1.2-1.94-.12-.08-.21-.22-.31-.32-.4-.42-.79-.84-1.2-1.25-.1-.1-.23-.22-.36-.23-.5-.05-.88-.35-1.3-.55-.17-.08-.37-.22-.44-.39-.17-.38-.49-.63-.75-.93-.24-.28-.51-.57-.67-.9-.34-.69-.79-1.27-1.3-1.83-.29-.31-.59-.63-.79-1-.49-.87-1-1.75-1.35-2.68-.4-1.09-.84-2.14-1.63-3-.16-.18-.18-.39-.12-.63.12-.54.21-1.08.31-1.62.06-.33.05-.65-.16-.93-.19-.26-.24-.54-.23-.85,0-.25,0-.5,0-.75.02-1.13-.11-.79.6-1.69.32-.41.7-.8.95-1.26.84-1.54,1.61-3.12,2.44-4.66.43-.79.34-1.53-.03-2.29-.14-.28-.35-.44-.65-.41-.32.03-.64.09-.95.18-.23.06-.43.07-.66,0-.72-.23-1.43-.45-2.16-.65-.52-.14-.97-.38-1.4-.7-1.59-1.18-3.17-2.36-4.77-3.53-.79-.58-1.6-1.13-2.39-1.69-.2-.14-.41-.29-.61-.44-.19-.14-.3-.33-.35-.56-.04-.2-.05-.4-.11-.59-.07-.2-.07-.46-.33-.56-.05.06-.11.11-.14.17-.29.62-.3.62-.95.45-.12-.03-.24-.06-.36-.1-1.2-.37-2.39-.73-3.59-1.1-.38-.12-.77-.24-1.14-.36-.21-.07-.43-.11-.49-.39-.02-.09-.19-.15-.29-.22-.78-.5-1.57-.99-2.34-1.5-.5-.33-1.01-.64-1.6-.82-.24-.07-.47-.17-.69-.29-.4-.22-.58-.56-.48-1,.07-.31.2-.62.32-.92.07-.18.17-.35.26-.54-.4-.51-.78-1.01-1.17-1.5-.39-.47-.69-1.01-1.19-1.43-.6,1.86-1.55,7.21-1.77,13.11-.27,7.36.59,14.6,2.57,21.7,2.1,7.52,5.35,14.5,9.76,20.95,4.41,6.45,9.73,12.02,15.96,16.73,4.74,3.58,9.84,6.52,15.42,8.86Z"/>
  <path d="m86.81,35.09c.05.07.11.18.18.28.51.67,1.06,1.27,1.95,1.42.07.01.15.04.21.07.18.07.29.2.29.4,0,.05,0,.1-.01.15-.17.85.27,1.44.87,1.95.11.1.24.18.36.27.44.3.52.55.29.99-.05.1-.16.21-.27.24-.44.13-.88.23-1.3-.05-.13-.08-.27-.14-.39-.22-.21-.13-.43-.12-.65-.06-.35.1-.46.23-.43.59.03.3.1.59.16.88.03.15.09.29.11.44.04.36-.16.64-.51.72-.25.05-.49.04-.74-.06-.23-.09-.47-.17-.71-.23-.08-.02-.23.04-.26.1-.05.1-.07.26-.02.34.12.18.3.33.45.5.1.11.19.22.28.34-.17.26-.4.36-.66.34-1.06-.07-1.91-.55-2.6-1.34-.14-.73-.78-1.22-.96-1.99.11-.18.21-.41.38-.59.33-.34.74-.49,1.23-.41.52.08,1.04.12,1.57.04.17-.03.35-.05.51-.1.24-.08.34-.28.28-.54-.06-.26-.22-.44-.46-.56-.22-.11-.46-.2-.67-.33-.43-.26-.8-.6-1.08-1.03-.29-.45-.68-.79-1.13-1.07-.67-.43-1.37-.42-2.08-.16-.14.05-.28.12-.41.18-.26.12-.53.15-.8.03-.5-.21-1.02-.21-1.55-.19-.33,0-.65,0-.98,0-.24,0-.43-.09-.61-.24-.35-.3-.36-.5-.07-.89.3-.41.65-.74,1.1-.99.24-.13.45-.32.65-.5.45-.4,1-.46,1.5-.12.04.03.09.05.12.09.49.68,1.17.57,1.84.45.34-.06.68-.17,1.02-.25.27-.07.49,0,.68.21.15.17.29.35.47.49.44.37.93.57,1.53.39.43-.13.88-.22,1.35.02Z"/>
  <path d="m138.63,54.17q-.46.48-.59,1.32c-.19.21-.45.31-.74.29-.73-.05-1.44.11-2.16.21-.27.04-.53.14-.79.23-.46.16-.64.16-1.18,0,.33-.28.65-.55.97-.8.05-.04.14-.06.21-.05.39.05.5-.25.67-.48-.18-.43-.59-.35-.92-.45-.15-.43-.1-.84-.04-1.24.36-.2.7-.39,1.08-.61,0-.27,0-.57.01-.86.02-.37-.15-.62-.44-.81-.04-.03-.09-.04-.13-.07q-.6-.34-.49-.98c.06-.37.12-.74.2-1.11.04-.19.13-.37.19-.52.28-.05.34.15.46.26.13.12.27.22.38.32.17.54-.08,1.13.23,1.64.21.04.4.07.57.1.06.06.1.1.12.14.24.55.5,1.09.7,1.66.11.3.26.53.49.73.39.35.77.71,1.19,1.1Z"/>
  <path d="m53.7,86.8c.03-.12.04-.19.07-.26.02-.04.07-.07.11-.1,1.21-.76,1.27-.77,2.74-.51.39.07.79.12,1.17.27.17.07.39.05.58.02.32-.06.58,0,.84.2.26.2.54.35.82.52.37.22.69.5.94.84.24.33.57.56.94.72.19.09.23.24.13.48-.44.11-.89.14-1.35-.07-1.25-.57-2.52-1.11-3.76-1.7-.52-.25-1.01-.35-1.59-.2-.61.16-.98.08-1.65-.21Z"/>
  <path d="m129.1,52.27c-.13.16-.26.31-.38.47-.08.02-.15.05-.22.05-.55,0-1.1,0-1.65.01-.38,0-.74-.02-1.08-.21-.17-.09-.38-.11-.57-.15-.19-.04-.38-.08-.63-.13.12-.27.22-.49.33-.72.2-.02.37-.07.54-.06.5.05.92-.11,1.31-.42.21-.17.45-.31.68-.47.23-.16.47-.19.68,0,.39.35.85.37,1.33.36.25,0,.5-.02.75-.02.22,0,.4.06.48.28.09.24-.11.37-.25.49-.27.23-.58.39-.93.45-.12.02-.24.04-.37.06Z"/>
  <path d="m90.21,58.06c.04.48-.13.8-.45,1.03-.34.24-.72.36-1.13.24-.17-.05-.34-.1-.48-.19-.39-.24-.8-.27-1.23-.17-.22.05-.44.1-.66.13-.25.03-.5,0-.72-.14-.13-.08-.18-.28-.08-.39.15-.16.31-.34.51-.43.89-.42,1.56-1.07,2.12-1.86.13-.19.27-.42.59-.48.03.11.07.19.08.28.02.17.02.35.02.52.03.75.32,1.19,1.06,1.33.12.02.23.08.39.14Z"/>
  <path d="m68.94,90.16c-.35.11-.59.18-.82.26-.26.09-.53.16-.77.29-.25.13-.51.21-.79.19-.4-.04-.79.02-1.19.06-.39.04-.79-.03-1.18.01-.4.04-.79.04-1.22,0,.27-.25.27-.26.69-.33.25-.04.49-.12.68-.29.11-.1.18-.23.26-.32,0-.33-.22-.62,0-.96.13-.02.29-.07.46-.07.32.02.63.13.96.03.1-.03.24.04.36.08.72.19,1.45.38,2.19.57.09.12.19.26.37.49Z"/>
  <path d="m143.04,64.35c.35.15.66.3.97.43.5.21.66.64.37,1.09-.12.19-.28.36-.45.5-.38.32-.52.72-.49,1.2.01.22.02.45,0,.68-.05.45-.27.8-.69,1-.2.1-.43.02-.49-.19-.06-.21-.12-.44-.11-.66.02-.75.04-1.5.12-2.25.07-.69.42-1.27.76-1.8Z"/>
  <path d="m152.93,66.61c.29.04.58.08.87.14.07.02.11.13.18.22-.62.18-.68.16-1.04-.37,0,0-.01.01-.01.01Z"/>
</svg>