<?xml version="1.0" encoding="UTF-8"?>
<svg id="Layer_1" data-name="Layer 1" xmlns="http://www.w3.org/2000/svg" width="200" height="200" viewBox="0 0 200 200">
  <path d="m91.46,154.71c-14.1-.17-27.79-2.1-41.17-6.67-9.54-3.25-18.14-7.89-25.09-15.13-6.31-6.58-10.98-14.16-11.03-23.73-.04-7.61,2.45-14.55,6.57-20.75,6.2-9.33,14.62-16.36,24.37-21.9,18.02-10.24,37.43-15.54,58.05-16.87,16.56-1.07,32.85.03,48.7,5.4,10.44,3.54,20.08,8.41,27.82,16.39,5.94,6.12,9.77,13.38,10.09,22.06.31,8.41-2.7,15.89-7.23,22.82-6.78,10.38-16.88,16.88-27.34,22.87-14.29,8.19-29.99,11.97-46.16,14.02-5.83.74-11.72,1.01-17.58,1.49Z"/>
</svg>