<?xml version="1.0" encoding="UTF-8"?>
<svg id="Layer_1" data-name="Layer 1" xmlns="http://www.w3.org/2000/svg" width="200" height="200" viewBox="0 0 200 200">
  <path d="m43.72,105.09c-2.4-4.34-1.35-6.54,3.46-7.59,1.78-.39,3.61-.55,5.43-1.17-2.86.37-5.45.78-6.62-2.88-.22-.69-2.44-.59-3.57-1.18-1.15-.6-2.75-1.49-2.94-2.48-.19-.99.96-2.41,1.83-3.37.8-.89,2-1.42,3.02-2.11-.23-.35-.46-.7-.69-1.05-.91.64-1.8,1.29-2.72,1.91-1.65,1.1-3.19,2.59-5.01,3.12-1.08.32-2.61-.88-3.94-1.39.47-1.08.68-2.4,1.45-3.18,1.59-1.61,3.48-2.93,5.25-4.36-.07-.28-.14-.55-.21-.83-1.01,0-2.03-.1-3.03.02-1.8.23-3.57.64-5.37.9-2.85.41-5.68.01-7.44-2.32-1.02-1.35-1.69-3.61-1.32-5.17.27-1.11,2.46-2.28,3.92-2.47,1.9-.25,3.94.39,5.9.74,2.01.36,4,.83,6,1.25.12-.24.24-.49.36-.73-.6-.82-1.41-1.57-1.75-2.48-.3-.83-.39-2.02,0-2.73.24-.42,1.69-.53,2.41-.26,1.79.65,3.52,1.51,5.18,2.43,2.07,1.15,3.78,1.4,4.96-1.14.94-2.04,2.53-2.63,4.45-1.49,2,1.18,1.58,2.7.37,4.32-.42.55-.37,1.45-.54,2.19l.86.25c.37-.74.7-1.51,1.12-2.23,1.21-2.11,4.09-3.34,6.26-2.3,1.82.87,3.36,2.31,5.09,3.38.6.37,1.43.6,2.12.54,5.29-.53,6.19.6,4.07,6.46,3.67.29,7.12.57,10.58.84-.18-.31-.36-.62-.54-.93.9-1.15,1.59-2.74,2.77-3.28.67-.31,2.38.85,3.18,1.75,1.7,1.89.64,3.72-.63,5.42-.57.76-1.1,1.54-.95,2.51,2.35-.86,4.7-1.73,7.07-2.6q-2.81-5.79,5.39-8.35c-.96-.35-1.91-.71-2.87-1.04-3.55-1.23-7.13-2.4-10.64-3.76-.42-.16-.84-1.64-.57-2.01.53-.73,1.48-1.33,2.37-1.55.45-.12,1.52.59,1.65,1.1.72,2.8,3.25,3.09,5.33,3.83.53.19,1.87-.63,2.19-1.29,1.49-3.09,2.9-3.71,6.14-2.55,1.62.58,3.34.91,5.65,1.52-.45-1.16-.59-1.5-.71-1.84-.38-1.13-.74-2.26-1.12-3.39,1.14.1,2.31.1,3.42.34.77.17,1.53.56,2.18,1.02,2.25,1.6,4.13,1.68,5.94-.78.45-.62,2.01-.87,2.83-.61.52.17.76,1.59.89,2.49.15,1,.03,2.04.03,3.76,2.59-2.03,2.92-6.82,6.87-4.34.85.53.57,2.85.83,4.48-.11.04.4-.08.83-.34,3.21-1.89,3.86-1.29,5.18,2.21.62,1.64,3.01,2.62,4.5,3.81.51-1.59.67-3.28,1.15-3.38,1.32-.27,2.78.13,4.18.27,0,.25.02.51.03.76,2.64-.88,5.27-1.75,8.07-2.68-3.47-1.46-6.33-2.55-9.05-3.9-.69-.34-1.12-1.49-1.34-2.35-.07-.29,1.07-1.28,1.4-1.17.74.24,1.34.95,1.96,1.5,1.88,1.68,3.7,3.61,6.57,2.79,6.13-1.75,10.55,2.09,15.3,4.67,1.55.84.88,2.19-.49,3.07-1.02.66-1.98,1.41-2.97,2.13l.3.88c.81.04,1.7.33,2.4.07,3.35-1.23,6.21.11,8.74,1.88,2.23,1.56,4.27,2.3,7.01,1.71,1.2-.26,2.63.6,3.96.95-.64,1.12-1.1,2.41-1.95,3.34-2.83,3.13-5.88,6.06-8.71,9.2-3.1,3.44-6.95,5.67-11.13,7.47-.52.22-1,.54-1.65.9,1.8.46,4.05.36,4.76,1.36,1.79,2.53,3.25,5.44,4.14,8.41.55,1.86-1.3,3.19-3.21,3.13-1.66-.05-3.31-.68-4.93-1.17-.89-.27-1.72-.77-2.6-1.18.34,2.03,1.07,3.79.75,5.34-.23,1.13-1.69,2.55-2.85,2.83-1.68.41-3.76.31-5.3-.38-.78-.35-.78-2.47-1.13-3.79-.17-.62-.14-1.45-.54-1.82-1.31-1.21-2.77-2.26-4.32-3.49-2.4,3.61-5.36,5.29-9.51,3.08-.29-.15-.95-.11-1.12.1-2.14,2.59-4.2,5.24-6.32,7.84-1.27,1.56-2.32,3.6-3.97,4.45-2.53,1.3-4.09.07-4.87-2.86-.16-.59-.64-1.1-1-1.7-3.48,3.42-6.72,3.42-12.22.6-1.44-.74-3.25-.77-4.9-1.12l-.16.72c.86,1.13,2.26,2.18,2.42,3.4.16,1.18-.81,2.62-1.55,3.77-1.72,2.65-5.37,4.27-7.51,3.31-2.77-1.25-3.36-3.53-2.39-6.28-2.23-1.31-4.36-2.56-6.5-3.81-6.2,4.33-8.13,4.35-12.79-.13-2.28,1.84-4.61,3.71-6.93,5.58-1.87,1.51-3.81,2.94-5.57,4.57-.82.77-1.54,1.86-1.83,2.94-.88,3.28-3.14,4.77-6.24,5.38-2.01.39-3.56-.09-4.37-2.19-.27-.7-.76-1.44-1.36-1.88-2.42-1.77-3.14-3.79-1.12-6.27-3.62-.83-6.59.08-9.39,2.23-.76.59-2.36.52-3.42.22-3.37-.97-6.35-.6-9,1.81-.44.4-1,.91-1.52.94-1.47.07-2.95-.08-4.42-.14.16-1.5-.24-3.65.59-4.37,1.86-1.62,4.33-2.55,6.57-3.72.89-.46,1.85-.79,2.77-1.18-.77-.73-1.42-1.75-2.34-2.12-4.18-1.69-8.42-3.21-12.65-4.77-2-.74-2.43-2.24-2.13-4.12.4-2.48,1.99-3.63,4.38-3.78,1.7-.11,3.41-.04,5.09-.21,1.91-.2,3.06-.98,2.94-3.31-.11-2.35.96-4.49,3.48-5.05,1.4-.31,3.58-.39,4.31.42.82.9.54,2.93.47,4.46-.02.58-.92,1.09-1.13,1.72-.18.52.07,1.19.13,1.79.58-.25,1.42-.34,1.67-.78.44-.75.48-1.73.74-2.59,1.02-3.4,2.38-4.18,5.79-3.43.63.14,1.3.09,2.1.13Zm36.63-19.03c-3.56-4.74-7.09-2.14-10.68-.61,1.81,3.18,1.23,4.41-2.25,4.9-2.33.33-4.66.56-6.62.79.92,2.39,2.32,4.42,2.31,6.45,0,2.03.51,2.31,2.2,2.55,1.73.25,3.61.62,5.03,1.54,4.47,2.89,11.25,2.13,14.43-2,.58-.75,1.21-2.44.92-2.71-.97-.87-2.31-1.68-3.57-1.81-3.12-.3-6.29-.08-9.42-.35-.7-.06-1.68-1.18-1.82-1.95-.12-.63.64-1.73,1.31-2.15,2.6-1.62,5.31-3.05,8.17-4.65Zm-39.44-11.39c1.82,5.77,6,8.24,10.55,9.6,4.29,1.28,8.81,3.09,13.64,1.3-1.31-1.79-2.9-3.07-3.28-4.65-.72-2.94-2.78-3.75-5.18-4.26-3.03-.64-6.08-1.19-9.15-1.61-2.05-.28-4.15-.25-6.57-.38Zm61.58,41.94c-.52-2.7-2.15-2.97-3.69-2.6-1.6.38-2.44.08-3.58-1.16-1.07-1.16-2.86-1.69-4.39-2.38-1.18-.53-2.73-.56-3.63-1.36-5.15-4.54-10.54-1.6-15.85-.67-.49.09-.86.88-1.03,1.07,2.61.69,5.5.79,7.55,2.15,2.46,1.65,4.74,2.02,7.35,1.35,3.14-.8,5.82.13,8.68,1.4,2.56,1.13,5.48,1.44,8.61,2.2Zm29.76-11.51c.17-.36.28-.77.52-1.08,2.85-3.72,6.05-4.12,9.92-1.66,2.44,1.55,5.06,2.93,7.77,3.93,2.92,1.08,6.04,1.63,9.29,2.48-.79-2.02-1.4-3.55-2.09-5.32-2.26,1.78-3.48.67-5.35-.92-2.29-1.93-5.51-2.75-8.34-4.03-.16-.07-.39.06-.59.06-1.6,0-3.19.05-4.78-.05-2.99-.19-7.19,3.44-6.34,6.6Zm-78.49,12.52c-5.47-.86-4.69,5.83-9.43,6.95,2.26.36,3.73.84,5.18.78,4.45-.18,9.19,1.64,13.13-2.19,1.37-1.33,1.85-2.66.62-3.79-.72-.66-2.51-.59-3.63-.25-1.06.32-1.86,1.47-2.82,2.18-1.67,1.23-2.64.43-3.02-1.27-.19-.85-.03-1.77-.03-2.41Zm75.3-24.87c1.5,1.04,2.61,2.47,3.69,2.45,5.41-.09,10.37-1.93,14.95-4.77.18-.11.15-.54.21-.79-4.04-3.19-4.03-3.17-8.83-.99-.7.32-1.59.54-2.32.39-3.36-.68-5.01,1.75-7.7,3.7Zm-16.49-21.88c2.91.58,3.55,2.98,4.59,5.57.77,1.92,3.42,3.11,5.3,4.53.22.17.88-.24,1.34-.39,1.7-.57,3.39-1.15,4.9-1.66-.48-1.03-1.03-2.86-2.09-4.31-.92-1.25-2.32-2.7-3.71-2.95-3.33-.61-6.77-.56-10.33-.78Zm50.09,27.77c5.64-2.75,10.46-6.09,14.44-10.77-2.48-.37-4.76-.39-6.91.13-.65.15-.77,1.92-1.45,2.68-.62.69-1.59,1.22-2.51,1.45-3.42.87-4.44,2.51-3.58,6.51Zm-45.53,14.3c.08.25.16.5.24.75,2.14,0,4.36-.34,6.41.08,3.09.64,4.94-1.32,6.26-3.16.67-.93-.61-3.28-1.02-5.01-4.34,2.68-8.12,5.01-11.9,7.33Zm-79.88,1.55c-2.93-.15-5.15.32-6.79-.45-3.95-1.87-7,.41-11.2,1.2,3.81,1.49,6.75,2.71,9.75,3.76.65.23,1.65.04,2.26-.33,1.84-1.14,3.57-2.46,5.98-4.17Zm125.96-42.44c-1.98-1.15-3.21-2-4.55-2.6-.62-.28-1.65-.41-2.16-.09-1.68,1.06-3.31,2.26-4.76,3.63-.46.44-.54,1.62-.32,2.32.17.55,1.26,1.37,1.6,1.23,3.28-1.32,6.49-2.83,10.19-4.49Zm-94.75,43.18c.83.31,1.41.42,1.86.72.61.41,1.12.97,1.68,1.47-.58.46-1.15.93-1.74,1.36-.59.43-1.21.81-1.77,1.27-.03.02.41.86.59.84.75-.05,1.53-.2,2.23-.49.54-.22.98-.69,1.46-1.05,1.84-1.38,2.88-3.28,1.17-5.1-1.68-1.78-3.59-.67-5.47.97Zm39.03-40.49c-.15-.31-.3-.62-.45-.93-3.16-.45-5.73,1.01-8.15,2.81-.48.35-.7,1.05-1.04,1.58.68.2,1.53.76,2,.54,2.6-1.23,5.1-2.65,7.64-4Zm-.94,17.97c-.57-3.56-2.12-3.49-9.41.29.27.4.59,1.15.79,1.12,2.81-.39,5.6-.89,8.62-1.41Zm56.95-5.94c1.38-2.26,2.48-4.06,3.6-5.89q-2.47-.97-5.85,2.68c.64.91,1.29,1.84,2.25,3.21Zm-63.19,35.93c-.97-2.88-6.57-5.07-10.46-4.23,3.49,1.41,6.97,2.82,10.46,4.23Zm-67.98-48.03c.06-.26.12-.51.18-.77-1.91-.48-3.8-1.11-5.74-1.34-.63-.07-1.39.91-2.09,1.42.67.55,1.36,1.59,2.01,1.57,1.89-.06,3.76-.55,5.64-.88Zm100.96,9.82c-.05-.32-.1-.65-.14-.97-3.17.49-6.34.97-10.34,1.58,4.49,2.69,7.47.94,10.49-.62Zm-78.45,10.13c-.32.24-.64.47-.96.71.72,1.17,1.26,2.53,2.23,3.42.52.47,1.78.14,2.71.17-.35-.82-.5-1.82-1.09-2.41-.8-.8-1.92-1.28-2.9-1.9Zm78.78,18.09c-.31-.29-.63-.57-.94-.86-1.3,1.03-2.65,2-3.86,3.13-.29.27-.23,1.13-.03,1.59.11.25,1.09.47,1.25.3,1.25-1.33,2.4-2.76,3.58-4.15Zm20.86-23.45c1.74-.85,3.23-1.43,4.56-2.28.61-.39.9-1.3,1.33-1.97-.78-.16-1.99-.73-2.28-.43-1.34,1.43-2.43,3.09-3.61,4.67Zm6.94,19.08c-.02.3-.04.59-.06.89.75.15,1.85.68,2.19.38.98-.88,1.66-2.1,2.46-3.19l-.72-.6c-1.29.84-2.58,1.68-3.87,2.53Zm-80.17,14.41l.93,1.03c1.04-.93,2.08-1.87,3.12-2.8-.33-.37-.66-.73-.99-1.1-1.02.96-2.04,1.92-3.06,2.87Zm65.13-48.23c.14.27.28.55.43.82-1.04,1.1-2.07,2.19-3.11,3.29-.21-.19-.42-.37-.63-.56,1.41-.36,2.82-.72,4.47-1.13-.49-1.02-.83-1.72-1.16-2.41Z"/>
</svg>