<?xml version="1.0" encoding="UTF-8"?>
<svg id="Layer_1" data-name="Layer 1" xmlns="http://www.w3.org/2000/svg" width="200" height="200" viewBox="0 0 200 200">
  <path d="m93.14,173.75c-12.9.09-25.17-2.72-36.73-8.22-10.66-5.07-19.74-12.23-26.52-22.06-6.04-8.76-9.86-18.28-11.03-28.98-1.08-9.88.29-19.4,3.53-28.58,3.14-8.88,7.98-16.87,14.29-24.04,7.53-8.57,16.31-15.44,26.36-20.69,9.63-5.04,19.88-8.41,30.64-9.93,16.71-2.37,32.89-.51,48.43,6.42,7.47,3.33,14.17,7.76,20.07,13.3,4.8,4.51,8.79,9.74,12,15.6,4.91,8.98,7.47,18.54,7.56,28.71.11,13.37-3.66,25.65-10.8,36.97-8.24,13.06-19.41,22.97-32.89,30.16-10.74,5.72-22.23,9.55-34.46,10.69-3.47.32-6.96.45-10.44.67Z"/>
</svg>