<?xml version="1.0" encoding="UTF-8"?>
<svg id="Layer_1" data-name="Layer 1" xmlns="http://www.w3.org/2000/svg" width="200" height="200" viewBox="0 0 200 200">
  <defs>
    <style>
      .cls-1 {
        fill: #fff;
      }
    </style>
  </defs>
  <path d="m39.45,57.11c.33-1.44-.19-2.18-1.61-2.82-1.78-.8-3.6-1.83-4.95-3.2-1.53-1.56-1.45-3.72-.32-5.62,1.1-1.84,2.51-2.13,4.81-1.74,3.43.59,7.56,1.3,10.43-.06,4.46-2.13,9.57-.97,13.73-3.73,1.58-1.05,2.74-.21,3.93,1.47,1.08,1.53,3.1,2.89,4.93,3.3,3.45.77,5.84,4.59,4.46,7.56,1.44,1.16,2.88,2.17,4.15,3.38,1.45,1.39,2.58,1.28,3.99-.62-1.17-.49-2.14-.89-3.1-1.29.06-.29.11-.59.17-.88,1,.33,2.16.44,2.98,1.02,2.32,1.66,4.34,3.8,6.8,5.18,1.6.9,3.76.99,5.69,1.11,5.34.33,10.72.14,16.02.77,7.99.96,14.59-2.09,20.94-6.24,1.84-1.2,1.89-2.76,1.25-4.76-.46-1.44-.69-3.31-.16-4.64,1.15-2.92,2.02-4.63,6.02-2.54.9.47,2.1.35,3.32.52-.7-3.31-3.59-5.47-6.39-5.42-1.16.02-2.64-.13-3.41-.82-.73-.65-1.13-2.22-.9-3.2.14-.58,1.8-1.15,2.75-1.1,2,.09,4,.3,4.14,3.27.04.76,2.09,1.43,3.21,2.14.4-.91,1.19-1.85,1.14-2.74-.16-3.19.54-3.84,3.69-4.01,2.53-.14,4.78-.39,6,2.5.15.36,1.35.33,2.07.37,3.1.17,5,2.73,3.75,5.56-1.19,2.68.15,2.99,2.23,3.03,1.94.03,4.36-.58,5.69.35,1.2.84,1.11,3.42,1.77,5.16,1.85,4.87,5.12,8.63,9.25,11.76.97.74,1.71,2.14,2,3.37.57,2.45.74,4.99,1.12,7.8,2.92-1.63,5.19-.4,5.91,2.66.85,3.63-1.87,5.23-4.97,6.22.74,3.28,3.73,2.31,5.36,3.35.88-.7,1.66-1.32,2.43-1.94.65,1.1,1.71,2.15,1.88,3.32.55,3.77.32,7.3-4.13,8.97-.67.25-.99,1.84-1.18,2.86-.65,3.43-1.06,6.91-1.75,10.33-1.12,5.53-2.5,11.01-3.52,16.56-.42,2.25-1.07,4.04-3.29,4.96-.44.18-1.21.39-1.23.64-.37,3.57-2.65,4.64-5.83,4.69-.21,0-.42.36-.61.58-4.8,5.83-9.63,11.64-14.36,17.53-.81,1.01-1.35,2.28-1.81,3.51-1.44,3.86-4.53,6.02-7.98,7.75-.67.34-1.92.36-2.47-.05-2.26-1.71-3.59-.4-4.62,1.33-1.21,2.03-2.69,2.69-5.03,2.24-.8-.15-2.28.55-2.64,1.27-1.84,3.65-4.75,5.62-8.65,6.44-1.49.31-2.92.9-4.4,1.32-2.41.68-4.52.4-6.1-1.85-1.44-2.05-2.88-2.03-4.49-.05-3.1,3.81-3.55,3.89-8.49,2.45-.64-.19-1.58.27-2.25.67-2.09,1.23-4.11,1.86-6.52.71-.65-.31-1.97.09-2.64.6-4.11,3.15-8.87,3.15-13.64,2.93-.93-.04-2.25-.69-2.67-1.45-1.8-3.23-3.94-6.44-3.19-10.38-3.25-1.51-6.53-3.03-9.8-4.57-2.43-1.14-4.72-1.02-7.12.28-4.78,2.6-10,1.71-12.96-2.08-.51-.65-1.17-1.6-1.03-2.26.44-2.11-.11-3.45-1.83-4.84-1.36-1.1-.27-3.23,1.57-3.52.97-.16,1.94-.33,3.73-.63-5.34-4.39-10.02-8.25-14.74-12.09-1.31-1.06-1.67-2.12-.74-3.71,1.49-2.55.76-4.57-1.5-6.37-1.92-1.53-3.9-2.34-6.37-2.7-3.65-.52-4.85-2.17-5.59-5.79-.16-.79-.85-1.66-1.55-2.1-2.39-1.5-3.26-4.53-1.64-6.81,1.03-1.45,2.26-2.55,4.36-1.45,1.79.93,3.63,1.07,5.04-1.77-1.57,0-2.76-.17-3.89.03-2.49.44-3.28-1.06-3.07-2.96.55-4.93.31-7.39,6.32-8.22.45-.06.87-.31,1.46-.54-.15-.62-.15-1.23-.42-1.66-.84-1.36-1.85-2.94-.25-4.07,1.35-.95,3.2-1.35,4.9-1.63,1.05-.18,2.21.32,3.32.51.1-.32.19-.65.29-.97-1.11-.52-2.23-1.02-3.33-1.56-3.23-1.58-3.9-5.29-1.42-7.79,1.93-1.95,1.91-3.4-.07-5.49-2.66-2.82-2.71-3.64-.45-6.87.27-.39.61-.76.8-1.19,1.07-2.53,2.43-4.5,5.53-2.86,2.79-5.26,6.7-7.44,11.78-6.7,2.33,4.02,2.97,4.23,6.43,1.9-1.75-2.17-4.16-1.85-6.45-1.87Zm34.02,111.52c4.18,1.4,15.49,1.03,17.21-.54-1.15-.48-2.4-.76-3.34-1.45-4.1-3-10.09-2.27-13.86,1.99Zm30.94-14.69c-1.72-.65-2.85-1.11-4.01-1.51-3.2-1.12-6.87,1.6-6.53,4.95.05.53,1.32,1.47,1.76,1.33,2.02-.61,4-1.43,5.88-2.38,1-.51,1.78-1.44,2.9-2.39Zm-60.18-44.07c-2.89-2.25-7.37-2.48-10.49-.65-.59.34-.95,1.07-1.42,1.62.65.47,1.25,1.25,1.96,1.36,3.49.53,6.81.08,9.95-2.33Zm14.05,24.03c3.97,1.53,10.02-.02,10.98-2.67-4.1-1.2-8.91-.09-10.98,2.67Zm95.23,7.25c-3.97-2.55-7-2.27-9.41.69,1.8,2.27,4.94,2.08,9.41-.69Zm9.45-33.56c-3.22-3.59-6.51-4.04-9.61-1.73,2.53,3.55,6,1.2,9.61,1.73Zm-35.11,49.72c-1.44.19-2.72-.02-3.1.47-2.04,2.63-4.72,3.48-8.43,2.92,3.62,3.11,8.65,1.6,11.53-3.4Zm-37.61-15.53c2.66,1.48,4.83.41,6.96-.37.13-.05-.1-1.8-.28-1.82-2.33-.28-4.78-.69-6.68,2.19Zm-56.59-9.18c-2.57-1.01-4.73-.79-6.34,2.01,2.91,1.27,4.45-.97,6.34-2.01Zm23.58-30.93c.11.43.22.86.34,1.29,1.98-.61,4.41.3,6.01-1.58-.12-.42-.23-.84-.35-1.25-2,.51-4,1.03-6,1.54Zm36.88,67.1c-1.11.91-2.04,1.67-2.97,2.43.94.15,1.87.3,2.81.43.18.03.4.06.56-.02.68-.32,1.33-.67,2-1.02-.68-.52-1.36-1.03-2.4-1.82Zm-40.44-19.38c.1.35.2.71.29,1.06,1.84-.54,4.52,1.54,5.72-2.78-2.35.67-4.18,1.19-6.02,1.72Zm20.22,3.02c.85,2.92,2.88,1.81,4.87,2.13-.98-2.73-2.61-2.81-4.87-2.13Zm43.52.61c.15.54.29,1.09.44,1.63,1.51-.4,3.01-.79,4.52-1.19-.12-.49-.24-.97-.35-1.46-1.54.34-3.07.68-4.61,1.02ZM29.52,79.79c.03-.33.06-.65.09-.98-1.5-1.44-2.96-1.12-4.39.98h4.3Zm47.84,68.76c.08.34.16.68.23,1.01,1.86.67,3.36.29,4.51-1.16-.11-.36-.22-.72-.33-1.08-1.47.41-2.95.81-4.42,1.22Zm40.92,19.64c.22-.26.43-.52.65-.78-.37-.66-.7-1.83-1.12-1.87-.98-.08-2,.39-3.01.64,0,.33,0,.66,0,.99,1.16.34,2.32.68,3.48,1.03Zm-17.97,1.85c.11.5.22,1,.34,1.5,1.54-.33,3.09-.66,4.63-.99-.11-.51-.22-1.02-.34-1.54-1.54.34-3.09.68-4.63,1.02ZM29.99,106.97c-2.61-1.71-4.77-1.11-5.93,1.38,1.95-.45,3.73-.87,5.93-1.38Zm29.2-18.21c.06.45.12.9.18,1.35,1.77-.23,3.54-.46,5.31-.7-.06-.44-.12-.88-.18-1.33-1.77.22-3.54.45-5.31.67Zm74.08-10.02c-2.12.38-3.52.63-4.93.88,1.96,2.26,3.28,1.53,4.93-.88Zm-3.89-7.37l.14,1.62c1.41-.23,2.82-.47,4.22-.7-.06-.43-.11-.86-.17-1.28-1.4.12-2.8.24-4.2.36Zm-81.96,82.34c.17.2.33.39.5.59,1.17-1.14,2.35-2.28,3.52-3.42-.39-.4-.78-.8-1.18-1.2-.95,1.34-1.89,2.69-2.84,4.03Zm103.56-59.06c.14.47.28.94.42,1.41,1.44-.47,2.89-.95,4.33-1.42-.12-.41-.24-.81-.36-1.22-1.46.41-2.92.82-4.38,1.23Zm8.61,33.28c.05.45.09.91.14,1.36,1.15-.09,2.3-.18,3.45-.27-.06-.5-.15-1.43-.19-1.43-1.14.05-2.27.2-3.4.34Zm-56.22,9.43c.09.43.17.86.26,1.29l3.79-.76c-.09-.43-.17-.85-.26-1.28-1.27.25-2.53.5-3.8.75Zm-35.62-40.26c.05.49.09.98.14,1.47l3.79-.73c-.06-.38-.12-.77-.18-1.15-1.25.14-2.5.27-3.76.41Zm2.18-34.8c.01-.44.03-.87.04-1.31h-3.87c-.01.35-.03.69-.04,1.04,1.29.09,2.58.18,3.87.28Z"/>
  <path d="m96.03,26.56c1.06-2.37,2.85-3.37,5.1-2.38,2,.88,2.25,2.16,1.03,4.89,1.87-.19,3.8-.39,5.87-.6-.47-2.37-1.69-5.19,1.67-6.03,5.86-1.46,6.94-.82,8.17,3.65,1.39-.37,2.84-.6,4.15-1.15,2.02-.85,3.74-.54,4.59,1.42.49,1.14.67,3.41.06,3.83-1.5,1.03-3.5,1.48-5.36,1.77-.74.11-1.65-.81-2.46-1.25-4.78,4.72-11.99,7.74-15.71,3.75-1.45,1.53-2.92,3.08-4.39,4.63.32.88,4.4.97,2.08,4.35-1.25,1.82-3.24,1.98-5.16,1.08-2.61-1.22-2.1-3.27-1-5.34-1.68-.77-3.33-1.3-4.74-2.2-3.12-2.01-3.38-5.63-4.2-8.74-.6-2.28,1.9-3.94,4.25-3.3,1.97.53,3.94,1.04,6.05,1.6Z"/>
  <path d="m91.97,42.92c.09,3.6-2.79,6.38-6.56,6.68-3.36.26-7.46-2.64-7.8-5.52-.36-3,3.1-6.2,6.08-5.68,1.58.27,3.17.45,4.77.64,2.52.3,3.03,2.25,3.52,3.88Z"/>
  <path d="m78.15,27.67c1.24,0,2.53-.2,3.71.06.99.22,2.32.8,2.65,1.58.34.82.04,2.57-.61,3.03-2.76,1.99-5.64,3.91-8.71,5.36-2.34,1.11-5.52-.64-6.1-2.8-.53-2.01,1.24-3.85,4.1-4.62.95-.26,1.73-1.12,2.59-1.7.71-.48,1.44-.95,2.16-1.42l.22.49Z"/>
  <path d="m121.32,54.25c-2.85-.53-5.7-2.41-5.59-4.56.07-1.42,1.19-3.08,2.32-4.08,1.28-1.12,6.52.3,7.26,1.87.47.99.75,2.71.22,3.4-1.08,1.38-2.77,2.28-4.21,3.37Z"/>
  <path d="m103.19,55.38c-1.68-.07-3.07-.86-3.23-2.97-.13-1.85,2.48-4.13,4.7-4.17,1.96-.04,2.65,1.1,2.7,2.9.07,2.56-1.41,4.18-4.17,4.24Z"/>
  <path d="m121.92,32.39c1.09,1.3,1.78,2.13,2.47,2.95-1.06.89-2.05,2.33-3.2,2.47-.83.1-1.87-1.53-2.82-2.38,1.03-.88,2.05-1.76,3.55-3.04Z"/>
  <path d="m117.52,56.37c-.9.49-1.85,1.43-2.68,1.34-.85-.09-1.59-1.2-2.38-1.86.74-.59,1.46-1.61,2.24-1.66.9-.06,1.85.74,2.79,1.17.01.34.03.68.04,1.02Z"/>
  <path class="cls-1" d="m29.99,106.97c-2.19.51-3.98.92-5.93,1.38"/>
</svg>