<?xml version="1.0" encoding="UTF-8"?>
<svg id="Layer_1" data-name="Layer 1" xmlns="http://www.w3.org/2000/svg" width="200" height="200" viewBox="0 0 200 200">
  <defs>
    <style>
      .cls-1 {
        fill: none;
        stroke: #000;
        stroke-miterlimit: 10;
        stroke-width: 5px;
      }
    </style>
  </defs>
  <circle class="cls-1" cx="96.75" cy="101.59" r="73.55"/>
  <g>
    <path d="m33.38,101.44c.04-2.04.63-2.76,2.69-1.87,1.13.49,2.6.09,3.91.09.13-.32.25-.64.38-.96.59,1.42,1.62,2.83,1.66,4.28.07,2.23.78,3.4,2.8,3.57-1.3,1.77-2.58,3.44-3.73,5.2-.09.14.65.9,1.25,1.71.68-1.54,1.1-2.74,1.74-3.81.28-.47.96-.77,1.52-.94,2-.61,3.56-1.5,2.55-4.85,1.5.88,2.49,1.46,3.77,2.22-.83.94-1.61,1.55-2,2.36-.32.68-.19,1.61-.25,2.42.68,0,1.36.02,2.04.02,1.15,0,2.3,0,3.63,0,.97-2.53,2.09-5.47,3.35-8.78.47,1.02.79,1.7,1.1,2.38.17.01.35.03.52.04.17-.92.33-1.84.53-2.96.55-.03,1.16-.06,1.55-.08-.25-1.58-.5-3.11-.74-4.67-1.04-.11-2.19-.24-3.34-.36-.18-.27-.36-.55-.54-.82-.56,1.26-1.13,2.51-2,4.46-.83.4-1.35-.83-1.92-2.03-.34-.71-.67-1.47-1.18-2.02-.14-.15-.93.41-1.42.65,1.4,3.19-.98,2.33-2.36,2.49-.35.04-.72-.1-1.12-.16.89-2.43,1.74-4.76,2.65-7.26q.83.04.77,2.73c.91-.21,1.76-.41,2.8-.66.25.78.51,1.59.92,2.86,1.47-1.67,2.77-3.14,3.68-4.18,1.63,1.49,3.26,2.98,5.02,4.59-.1.16-.43.66-.75,1.16.16.24.32.47.49.71.66-.46,1.55-.78,1.93-1.43.54-.91.71-2.08,1.17-3.55.64.89,1.07,1.5,1.4,1.96-1.35,2.77-3.25,5.14-1.18,8.35.45.71-.05,2.11-.12,3.36h-5.34c.01.17.02.33.04.5.93.16,1.9.21,2.77.55.41.16.71.85.91,1.37.3.8.46,1.66.78,2.89-.33.12-1.06.38-1.65.6-.35,1.86-.69,3.65-1.03,5.44,3.26.8,1.96-2.72,3.27-4.42.59,1.61,1.04,2.85,1.73,4.73.88-1.03,1.57-1.83,2.33-2.72-1.19-.69-2.05-1.19-3.26-1.89,1.1-.71,1.78-1.14,2.78-1.79-.86-.82-1.57-1.48-2.38-2.25.51-1.15.24-3.06,2.43-2.59.2.04.6-.26.68-.49.08-.23-.05-.66-.23-.85-1.92-1.98-2.81-5.58-1.79-8.39.22-.62,1.24-1.23,1.92-1.26.53-.02,1.09.85,1.64,1.33-.14.23-.28.45-.41.68-.49-.12-1.11-.49-1.43-.29-.46.28-.89.95-.97,1.51-.08.6.25,1.27.46,2.13,3.17-.55,1.31,3.02,2.52,4.55.61-.71,1.15-1.32,1.3-1.5,1.51.52,2.69.92,3.86,1.32-.26-1.09-.51-2.17-.77-3.26-.03-1.68,2.21-3,.85-5.64-1.43,1.63-2.64,3.02-4.33,4.95.2-2.84.34-4.88.49-7.01.92.25,2.15.58,3.49.95.41-1.11.76-2.05,1.43-3.86.82,1.82,1.34,2.96,1.97,4.36,1.14.11,2.71.45,4.25.31.66-.06,1.24-1.11,1.85-1.7-.76-.11-1.52-.22-2.28-.34-.74-.12-1.49-.25-2.24-.79,1.95-.63,1.81-4.29,4.71-3.39-.2.83-.37,1.51-.58,2.39.74.35,1.48.69,2.7,1.26-1.16-2.75-.11-4.1,1.74-5.04l-.06-.07c.05.8.41,1.79.09,2.36-1.13,2.05.26,2.3,1.54,3.11.39-1.17.53-2.15,1-2.89.49-.77,1.3-1.3,1.47-1.45,2.64,1.54,4.85,2.82,7.06,4.1-.03.17-.06.34-.09.52-1.79-.45-3.59-.91-5.38-1.36-.2.2-.39.41-.59.61.46.95.74,2.42,1.45,2.73.79.34,1.98-.37,3.25-.68.15,1.32.27,2.41.45,4.04,1.14-.34,2.15-.64,3.17-.94-.44-.9-.88-1.8-1.34-2.76,1.29-1.25,3.41-.87,4.25.78.31.62,1.13.95,1.61,1.32.55-2.87.99-5.13,1.35-6.99-.63-.8-1.1-1.39-1.57-1.99.83-.08,1.66-.15,2.58-.24.27-1.97.2-2.02-3.73-1.84,1.45-1.19,2.38-2.82,4.36-1.89.2.09.65.04.65.08.23,3.45,2.24,2,3.91,1.72.24-.04.61.76.91,1.18-.39.28-.75.73-1.17.8-.67.1-1.37-.05-2.49-.12.69,1.14,1.08,1.78,1.74,2.88-1.06.13-1.8.22-2.54.33-.42.06-.93.02-1.23.26-.21.18-.31.96-.16,1.12,1.61,1.6-2.27,5.24,1.98,5.9,1.53.24,2.6,1.01,1.21,3.06-.51.75-.08,2.24-.08,3.28,1.52.58,3.35,1.28,5.38,2.06.16-.55.19-1.17.48-1.55.59-.77,1.21-1.65,2.01-2.05,1.76-.89,3.67-1.43,5.44-2.3.36-.17.36-1.17.52-1.79-.56.1-1.14.12-1.66.31-.92.33-1.81.76-2.72,1.15-.34-1.25-.75-2.48-1-3.75-.25-1.29-.35-2.61-.54-4.1.41.03.76.1,1.1.07.83-.09,2.29-.08,2.36-.39.25-1.18.19-2.5-.07-3.69-.06-.29-1.35-.23-2.06-.41-.66-.17-1.3-.45-2.21-.77-.68.67-2.04,1.14-.58,3.03.47.61-.33,2.35-.61,3.94-.93-1.79-2.17-3.26-2.35-4.87-.12-1.07,1.27-2.35,2.03-3.51.47-.71,1.01-1.36,1.69-2.27,1.14,4.42,3.51.84,5.4.89-1.23-.28-2.47-.55-3.7-.83.02-.3.03-.61.05-.91,2.48-.52,4.96-1.04,7.58-1.6-.3,1.3,1.82,3.96-1.99,3.63-.39,1.34-.76,2.64-1.13,3.93.23.1.45.2.68.3.52-.73,1.03-1.46,1.55-2.2,3.38,2.36,3.57,2.89,2.03,7.07,1.54-.67,2.7-1.18,3.63-1.59.87.08,1.64.1,2.38.24.51.1.99.39,1.48.59-.4.4-.78,1.1-1.22,1.15-1.38.15-2.78.06-3.98.06.33,1.7.6,3.09.99,5.11-2.16-1-3.59-1.66-5.02-2.33-.14.14-.28.27-.42.41,1.09,2.1,2.19,4.2,3.28,6.3.22-.05.43-.11.65-.16.23-1.06.47-2.13.81-3.68,1.16.45,2.26.87,3.64,1.41-.06-1.08-.06-2.17-.2-3.23-.24-1.85.47-2.26,1.98-1.65,1.42.57,2.85,1.13,4.28,1.7.19-.21.37-.43.56-.64-.52-.54-.98-1.15-1.57-1.58-.25-.18-.84.18-1.11,0-.45-.3-.9-.77-1.1-1.28-.13-.33.2-.86.33-1.3.45.17.93.29,1.35.53.67.39,1.25,1.04,1.95,1.25,2.38.71,2.27,2.55,2.07,4.57-.12,1.2-.02,2.42-.02,4.03.64-.5.95-.63.96-.78.11-2.83.57-5.73.15-8.48-.34-2.28.4-3.35,2.39-4.76-.51,2.79-.93,5.06-1.33,7.28h2.36c-.04.69,0,1.41-.14,2.07-.12.54-.63.99-.72,1.52-.22,1.3-.8,2.57,1.4,3,2.6.5,2.84,2.18,1,4.17-.75.81-1.46,1.69-2.1,2.61-.17.24-.1.84.08,1.12.17.27.75.55.93.43.56-.35,1.05-.86,1.51-1.36,1.92-2.14,3.83-4.3,5.88-6.62-.16-.29-.49-.91-.83-1.53-.06.23-.12.46-.17.7-1.14,0-2.44.38-3.37-.08-1.65-.83-2.04-5.51-.89-7.88.24-.02.48-.04.72-.06,0,.96.04,1.91-.01,2.87-.04.66-.2,1.31-.3,1.97.54-.08,1.08-.17,1.77-.27v3.06c.89-1.5,1.61-2.57,2.17-3.72.29-.6.31-1.35.44-2.04-.59.11-1.17.24-1.76.32-.2.03-.42-.1-.42-.1.28-1.53.55-3,.77-4.21,1.08,1.06,2.34,2.44,3.76,3.6.27.23,1.63-.32,1.65-.59.21-2.54,2.42-2.87,3.84-3.66,1.39-.77,2.48.79,2.58,2.29.24,3.84.66,7.74.29,11.54-1.51,15.69-7.93,29.03-18.01,40.36-8.05,9.04-17.64,15.78-28.56,20.22-4.21,1.71-8.61,2.89-12.92,4.35-2.19.74-3.45-1.83-3.41-2.49.22-3.18-2.23-2.9-3.33-2.63-3.23.78-6.33,2.2-9.47,3.37.02.3.04.61.06.91,2.84-.15,5.68-.31,8.99-.49-1.11,1.75-1.81,3.02-3.76,1.91-.75-.43-1.74-.53-2.62-.55-1.79-.04-3.59.18-5.39.12-2.41-.08-4.82-.33-7.67-.54.64.76.91,1.08,1.32,1.56-.48.06-.78.15-1.05.12-11.4-1.57-22.31-4.75-31.84-11.93-7.54-5.68-13.83-12.56-18.27-21.41-3.06-6.09-5.33-12.41-6-19.18-.36-3.6.72-7.35,1.01-11.05.11-1.44-.29-2.92-.22-4.37.08-1.62.44-3.23.68-4.85.33.04.65.09.98.13v3.77c1.15-1.71.06-5.03,3.56-4.59.17.95.42,1.89.47,2.85.04.82.13,1.88-.28,2.43-1.75,2.33-1.63,4.34.31,6.47,1.32,1.44,1.67,2.91-.27,4.4-.75.57-1.07,1.9-1.37,2.95-.1.35.37,1.13.74,1.31.28.13,1.02-.26,1.23-.63.48-.8.75-1.74,1.11-2.62h3.47c0-1.46.28-2.77,2.57-1.17-.85-1.76-1.42-2.94-1.98-4.1-.87.58-1.72,1.16-3.28,2.21-.13-2.32-.37-3.96-.17-5.54.03-.24,2.09-.18,3.22-.26.06.24.13.48.19.72.61-.71,1.28-1.38,1.81-2.16.22-.32.28-.92.16-1.3-.09-.29-.61-.67-.88-.62-1.74.29-3.46.69-5.19,1.05-.65-5.24-.66-5.26-1.93-5.92Zm57.85.42c-.47-1.22-.91-2.46-1.43-3.66-.23-.52-.58-1.24-.99-1.34-.36-.09-1.16.47-1.28.89-.48,1.71-.76,3.48-1.08,5.03,1.89-.39,3.36-.69,4.84-1-.46.84-.75,1.97-1.43,2.46-1.74,1.24-1.57,2.33-.22,3.68.25.25.31.69.46,1.04-1.69,2.03-2.45-.41-3.61-.84-.77,1.2-1.47,2.28-2.18,3.37,3.01.23,5.75.44,8.13.62.68-.76,1.53-2.12,1.84-1.99,3.38,1.42.15,3.19-.37,5.6,1.46-.87,2.94-1.36,2.94-1.83-.02-2.13,1.1-2.73,2.77-2.75-.81-2.06-4.69-1.42-3.3-4.93,1.19,1.02,2.33,2.02,3.5,3,3.69,3.07,5.34,2.71,7.7-1.79-2.94-.36-5.72-3.54-8.86-.17.28-.7.57-1.39.82-2.02-.6-.73-1.08-1.43-1.68-1.99-.34-.32-1.13-.73-1.27-.59-2.11,2.16-3.62.18-5.28-.78Zm-6.37,15.42c-1.27-.48-1.97-1.26-1.47-3.08.19-.7-.45-1.81-.98-2.5-.21-.27-1.2-.03-1.74.22-.55.25-.97.81-1.69,1.45.88.31,1.39.5,1.89.68-.35.58-.64,1.07-1.22,2.01,3.22,1.85,6.22,3.57,9.22,5.29.09-1.53-.18-2.37-.48-3.2-.31-.87-.63-1.73-.95-2.6-.77.52-1.54,1.04-2.58,1.74Zm14.71,12.05c.32.25.65.5.97.76,1.31-1.39,2.73-2.69,3.86-4.23.35-.47-.11-1.62-.2-2.46-.74.19-1.86.12-2.15.61-.99,1.67-1.68,3.53-2.49,5.32Zm-46.78-9.63c-.32,1.93,3.05,4.63,5.91,5.04-.62-1.87-1.23-3.68-1.96-5.86-.8,1.01-1.27,1.61-1.8,2.28-.68-.46-1.31-.88-2.16-1.46Z"/>
    <path d="m72.88,84.04c-1.97-2.83-1.5-4.06,1.21-5.92,1.67.48,3.07.89,4.53,1.31-.41-1.25-.72-2.18-1.03-3.12.79-.25,1.57-.51,2.54-.82-.46,3.78-.26,4,2.75,4.22.78.06,1.55.41,2.32.63-.35.62-.81,1.2-1.04,1.87-.36,1.06-.56,2.19-.99,3.95-.89-.56-1.81-1-2.56-1.66-1.91-1.7-2.96-4.67-6.05-4.59-.37,0-.74.08-1.09.12-.17,1.16-.33,2.23-.59,4Z"/>
    <path d="m90.79,89.99c-.23-.68-.46-1.36-.69-2.04h-3.19c.74-2.63,1.37-4.86,2.01-7.1.4.08.8.16,1.21.25v5.5c1.11-.29,2.57-1,4.03-.97,1.49.02,2.98.76,4.46,1.18-.6,2.36-1.6,2.73-3.4,1.43-.72-.52-1.55-.89-2.58-1.47v3.63c-.63-.16-1.26-.32-1.89-.47,0,0,.06.07.06.07Z"/>
    <path d="m85.31,90.11c-1,.27-2.01.54-2.98.8-.91-4.33-3.98-.81-5.91-2.02.2-.47.44-1.05.82-1.97-.67.16-1.01.31-1.35.3-.56-.02-1.16-.05-1.64-.3-.18-.09-.22-1.09-.04-1.23.52-.37,1.28-.84,1.78-.68,1.41.45,2.72,1.24,4.09,1.82.92.39,1.91.6,2.82,1.01.94.43,1.81,1.02,2.71,1.54-.1.24-.21.49-.31.73Z"/>
    <path d="m108.2,83.4c-1.55-2.29-2.59-1.81-3.58.22-.26.54-1.04.79-1.58,1.18-.17-.15-.34-.29-.51-.44.41-.72.81-1.44,1.27-2.25-1.01.07-1.96.13-2.91.19l-.17-.79c1.06-.42,2.11-.84,3.36-1.34-.62-.56-1.18-1.06-1.77-1.6,2.31-.22,5.44,2.13,5.9,4.82Z"/>
    <path d="m90.46,67.67c1.68,1.41,2.94,2.48,4.13,3.47-.21,1.04-.41,2.05-.72,3.59-.62-.55-1.4-1.12-2.03-1.83-.62-.71-1-1.66-1.63-2.34-1.69-1.83-1.64-2.15.25-2.89Z"/>
    <path d="m119.63,73.43c3.13,1.41,6.23,2.8,9.34,4.19-.03.24-.06.47-.08.71-.67.07-1.39.32-2.01.16-1.57-.38-2.85-2.19-4.77-.98-.12.08-.92-.87-1.26-1.44-.45-.76-.75-1.62-1.21-2.65Z"/>
  </g>
  <ellipse cx="99.35" cy="169.16" rx="13.44" ry="5.23"/>
</svg>