<?xml version="1.0" encoding="UTF-8"?>
<svg id="Layer_1" data-name="Layer 1" xmlns="http://www.w3.org/2000/svg" width="200" height="200" viewBox="0 0 200 200">
  <path d="m107.34,121.92c-5.95-4.18,1.31-5.41.72-8.81-.57-.12-1.29-.34-2.03-.41-12.65-1.21-25.29-2.57-37.96-3.54-11.88-.91-23.79-1.44-35.7-1.98-1.11-.05-2.38.93-3.41,1.66-4.49,3.16-9.12,2.94-14.58.92.97-1.02,1.52-1.66,2.14-2.24,2.35-2.23,7.01-1.38,7.78-6.01.11-.68,2.82-1.2,4.36-1.34,13.79-1.21,27.2-3.85,39.82-9.8,1.03-.48,2.18-.93,3.29-.98,17.68-.71,35.4-2.42,53.02-1.7,15.63.64,31.17,3.89,46.7,6.26,1.52.23,3.27,2.15,3.93,3.7.39.91-.8,3.34-1.89,3.9-5.52,2.86-11.02,6.17-16.94,7.72-7.31,1.92-15,2.48-22.58,3.17-3.11.28-5.11,1.17-6.86,3.82-5.09,7.7-11.78,13.49-21.08,15.44-1.62.34-3.49-.52-5.25-.82.6-1.73.87-3.68,1.88-5.12,1.01-1.44,2.76-2.35,4.63-3.85Z"/>
</svg>