{
  "accessors": [
    {
      "bufferView": 2,
      "componentType": 5126,
      "count": 65532,
      "max": [
        10.699999809265137,
        9.369460105895996,
        10.57241153717041
      ],
      "min": [
        -6.856678009033203,
        -9.774290084838867,
        -8.719951629638672
      ],
      "type": "VEC3"
    },
    {
      "bufferView": 2,
      "byteOffset": 786384,
      "componentType": 5126,
      "count": 65532,
      "max": [
        0.9999867677688599,
        0.9997406601905823,
        0.9999675750732422
      ],
      "min": [
        -0.9999896287918091,
        -0.9999488592147827,
        -0.9999861121177673
      ],
      "type": "VEC3"
    },
    {
      "bufferView": 3,
      "componentType": 5126,
      "count": 65532,
      "max": [
        0.9960784316062927,
        0.9960784316062927,
        0.9960784316062927,
        1.0
      ],
      "min": [
        0.0470588244497776,
        0.03529411926865578,
        0.01568627543747425,
        1.0
      ],
      "type": "VEC4"
    },
    {
      "bufferView": 1,
      "componentType": 5126,
      "count": 65532,
      "max": [
        0.9834510087966919,
        1.0
      ],
      "min": [
        0.0133689995855093,
        0.0
      ],
      "type": "VEC2"
    },
    {
      "bufferView": 0,
      "componentType": 5125,
      "count": 351225,
      "type": "SCALAR"
    },
    {
      "bufferView": 2,
      "byteOffset": 1572768,
      "componentType": 5126,
      "count": 26836,
      "max": [
        10.699999809265137,
        9.439842224121094,
        10.553583145141602
      ],
      "min": [
        -6.850403785705566,
        -9.771307945251465,
        -8.719951629638672
      ],
      "type": "VEC3"
    },
    {
      "bufferView": 2,
      "byteOffset": 1894800,
      "componentType": 5126,
      "count": 26836,
      "max": [
        0.9999328851699829,
        0.9999933838844299,
        0.9999675750732422
      ],
      "min": [
        -0.9999896287918091,
        -0.9995281100273132,
        -0.9999228715896606
      ],
      "type": "VEC3"
    },
    {
      "bufferView": 3,
      "byteOffset": 1048512,
      "componentType": 5126,
      "count": 26836,
      "max": [
        0.9960784316062927,
        0.9960784316062927,
        0.9960784316062927,
        1.0
      ],
      "min": [
        0.0470588244497776,
        0.03529411926865578,
        0.01568627543747425,
        1.0
      ],
      "type": "VEC4"
    },
    {
      "bufferView": 1,
      "byteOffset": 524256,
      "componentType": 5126,
      "count": 26836,
      "max": [
        0.9829409718513489,
        0.9999169707298279
      ],
      "min": [
        0.0,
        0.0
      ],
      "type": "VEC2"
    },
    {
      "bufferView": 0,
      "byteOffset": 1404900,
      "componentType": 5125,
      "count": 98775,
      "type": "SCALAR"
    }
  ],
  "asset": {
    "extras": {
      "author": "Digital Archive of Natural History (DiNArDa) (https://sketchfab.com/disc3d)",
      "license": "CC0-1.0 (http://creativecommons.org/publicdomain/zero/1.0/)",
      "source": "https://sketchfab.com/3d-models/red-oak-acorn-94bf085f6b5344afb18e45eb8fca5e85",
      "title": "Red oak acorn"
    },
    "generator": "Sketchfab-12.67.0",
    "version": "2.0"
  },
  "bufferViews": [
    {
      "buffer": 0,
      "byteLength": 1800000,
      "name": "floatBufferViews",
      "target": 34963
    },
    {
      "buffer": 0,
      "byteLength": 738944,
      "byteOffset": 1800000,
      "byteStride": 8,
      "name": "floatBufferViews",
      "target": 34962
    },
    {
      "buffer": 0,
      "byteLength": 2216832,
      "byteOffset": 2538944,
      "byteStride": 12,
      "name": "floatBufferViews",
      "target": 34962
    },
    {
      "buffer": 0,
      "byteLength": 1477888,
      "byteOffset": 4755776,
      "byteStride": 16,
      "name": "floatBufferViews",
      "target": 34962
    }
  ],
  "buffers": [
    {
      "byteLength": 6233664,
      "uri": "scene.bin"
    }
  ],
  "images": [
    {
      "uri": "textures/Red_oak_acorn_baseColor.png"
    }
  ],
  "materials": [
    {
      "doubleSided": true,
      "emissiveFactor": [
        0.33228556315104163,
        0.33228556315104163,
        0.33228556315104163
      ],
      "emissiveTexture": {
        "index": 0
      },
      "name": "Red_oak_acorn",
      "pbrMetallicRoughness": {
        "baseColorTexture": {
          "index": 0
        },
        "metallicFactor": 0.0,
        "roughnessFactor": 0.0
      }
    }
  ],
  "meshes": [
    {
      "name": "Object_0",
      "primitives": [
        {
          "attributes": {
            "COLOR_0": 2,
            "NORMAL": 1,
            "POSITION": 0,
            "TEXCOORD_0": 3
          },
          "indices": 4,
          "material": 0,
          "mode": 4
        }
      ]
    },
    {
      "name": "Object_1",
      "primitives": [
        {
          "attributes": {
            "COLOR_0": 7,
            "NORMAL": 6,
            "POSITION": 5,
            "TEXCOORD_0": 8
          },
          "indices": 9,
          "material": 0,
          "mode": 4
        }
      ]
    }
  ],
  "nodes": [
    {
      "children": [
        1
      ],
      "matrix": [
        0.09990774095058441,
        -0.5840632319450376,
        -0.8055362105369569,
        0.0,
        -5.551115123125783e-17,
        -0.8095868229866029,
        0.5870001912117002,
        0.0,
        -0.9949967265129089,
        -0.05864586308598516,
        -0.08088398724794389,
        0.0,
        2.6512598991394043,
        1.9675253629684444,
        1.8882780075073247,
        1.0
      ],
      "name": "Sketchfab_model"
    },
    {
      "children": [
        2,
        3
      ],
      "name": "Red_oak_acorn.obj.cleaner.materialmerger.gles"
    },
    {
      "mesh": 0,
      "name": "Object_2"
    },
    {
      "mesh": 1,
      "name": "Object_3"
    }
  ],
  "samplers": [
    {
      "magFilter": 9729,
      "minFilter": 9987,
      "wrapS": 10497,
      "wrapT": 10497
    }
  ],
  "scene": 0,
  "scenes": [
    {
      "name": "Sketchfab_Scene",
      "nodes": [
        0
      ]
    }
  ],
  "textures": [
    {
      "sampler": 0,
      "source": 0
    }
  ]
}
