<?xml version="1.0" encoding="UTF-8"?>
<svg id="Layer_1" data-name="Layer 1" xmlns="http://www.w3.org/2000/svg" width="200" height="200" viewBox="0 0 200 200">
  <path d="m85.7,30.36c1.88-7.9,2.53-8.24,11.15-9.86,2.41-.45,4.55-2.35,6.79-3.63,9.74-5.58,21.48,3.4,21.17,14.02-.11,3.82.66,5.41,4.4,6.1,1.54.28,2.79,2.08,4.17,3.19-1.07,1.33-2.14,2.67-3.41,4.25,9.48,7.12,9.73,19.78,15.47,29.59,4.81,8.23,7.63,17.12,6.77,26.75-.18,2.04-1.93,5.33-3.38,5.57-2.84.48-6.54.03-8.79-1.57-1.66-1.18-2.92-5.52-2.03-7.2,2.87-5.39,1.97-9.64-1.53-14.12-3.48-4.44-6.66-9.11-10.36-14.21-.81,3.74-1.04,6.22,2.38,8.5,4.19,2.79,2.34,11.18-2.37,13.19-1.13.48-2.31,2.24-2.41,3.49-.85,11.02-.71,22.18-2.41,33.05-1.09,6.94-4.72,13.49-7.35,20.16-2.4,6.08-5.13,12.04-7.39,18.17-.5,1.36.13,3.26.59,4.81,1.17,3.96.7,7.52-3.4,9.09-3.98,1.53-7.5.55-9.09-4.1-.41-1.22-1.15-2.32-1.73-3.48-.46,0-.92.01-1.38.02-.18,3.95-1.09,8.04-.35,11.81.78,3.94-.73,5.18-3.87,5.9-8.12,1.87-12.05-.97-11.87-9.46.45-21.3,1.22-42.59,1.96-63.88.11-3.12,1-6.22.99-9.32-.02-3.22-.7-6.43-1.09-9.65-.42.03-.85.07-1.27.1-.13,1.58-.26,3.15-.38,4.7-8.8,1.16-10.78-1.16-10.54-9.84.13-4.91-1.65-9.85-2.31-14.81-1.19-9.02-2.41-17.99,5.8-25.01,3.18-2.72,5.74-6.24,8.29-9.61.9-1.19,1.23-3,1.36-4.56.59-7.12.77-7.39,7.43-8.17Zm15.89,76.51c-.65-.05-1.3-.09-1.94-.14-.63,9.57-1.26,19.14-1.9,28.71l1.94.16c.63-9.58,1.27-19.15,1.9-28.73Z"/>
</svg>