<?xml version="1.0" encoding="UTF-8"?>
<svg id="Layer_1" data-name="Layer 1" xmlns="http://www.w3.org/2000/svg" width="200" height="200" viewBox="0 0 200 200">
  <defs>
    <style>
      .cls-1 {
        fill: none;
        stroke: #000;
        stroke-miterlimit: 10;
        stroke-width: 5px;
      }
    </style>
  </defs>
  <circle class="cls-1" cx="96.75" cy="101.59" r="73.55"/>
  <g>
    <path d="m121.2,49.5c3.06-.5,5.9-.96,8.82-1.43-.04.59-.03.85-.06.86-3.41.78-6.38,3.14-9.99,3.31-1.31.06-2.97.14-3.73,2.09-.19.5-1.14.68-1.77.9-1.79.63-3.69.9-5.13,2.49-.31.34-.84.44-1.29.57-2.81.83-5.67,1.51-8.43,2.51-1.23.45-2.47,1.35-2.23,2.9-6.19,2.17-12.24,4.1-18.17,6.44-5.8,2.28-11.46,4.98-17.44,7.61-.04.6-.09,1.54-.18,2.99,2.36-1.13,4.46-2.14,6.88-3.3.96.69,2.08-.03,3.34-.71,3.25-1.77,6.59-3.37,9.9-5.01.27-.13.61-.09,1.24-.18-.29.62-.38,1.13-.62,1.25-3.52,1.77-7.07,3.45-10.58,5.24-1.54.79-2.98,1.79-4.47,2.69.09.22.18.44.27.66,1.51-.62,3.02-1.24,4.57-1.87-.22,1.66-.29,2.88-.59,4.02-.14.55-.73.95-1.36,1.72,1.67-.2,2.8-.49,2.96-2.62.4.41.65.66,1,1.01.42-.68.86-1.37,1.34-2.15.53.54.97.98,1.62,1.63,1.01-.66,2.08-1.49,3.24-2.08.74-.38,1.64-.32,2.43-.61,1.11-.41,2.41-.58,2.86-2.15.29-1.01.87-1.06,1.83-1.13,1.55-.12,3.09-.88,4.59-1.49,2.97-1.2,5.91-2.48,8.87-3.7.3-.12.67-.18.98-.1,2.97.81,5.67.06,8.25-1.62.93-.61,1.87-1.34,2.89-1.56.89-.19,2.24-.12,2.75.49.94,1.15,1.82.71,2.75.51.82-.17,1.01-.8.76-1.72-.68-2.45-.58-2.69,1.61-3.35.72-.22,1.52-.12,2.7-.2-.62.98-.98,1.54-1.33,2.09.08.11.16.22.23.33,2.15-1.68,4.33-3.29,6.42-5.05,1.18-1,1.11-1.11,2.77-.71-.04.34-.15.69-.12,1.03.04.48.06,1.17.32,1.36.28.2.89.04,1.26-.17.47-.27.85-.74,1.25-1.14.64-.64,1.2-.88,2.16-.52.95.36,2.09.08,3.3.08.3-1.62,1.43-1.92,2.78-2.1,3.38-.44,6.7-.51,9.92.98,2.13.99,3.24,3.16,4.48,5.09.45.69.07,2.06.07,3.31-.97-.55-1.61-1.23-2.14-1.13-.52.1-.87,1.07-1.38,1.53-1.6,1.44-2.91,3.29-5.11,3.86-.68.18-1.42,1.41-1.62,2.31-.97,4.27-2.75,7.53-7.09,8.07-.07,1.83,1.25,1.13,2.06,1.43-.29.43-.52.76-.86,1.26.34.06.65.24.78.13,1.52-1.23,3.16-2.34,4.45-3.83.93-1.07,1.81-1.86,3.1-2.3.71-.24,1.34-1.08,1.78-1.82.18-.3-.22-1.05-.6-1.59.79-2.61,2.56-4.39,4.83-5.7.88,1.93.41,5.69-.63,6.9-.52.61-.84,1.43-1.35,2.33-.86-.58-1.5-.39-1.74,1.38-.16,1.19-.96,2.27-1.48,3.39-.51,1.09-.85,2.21.39,2.91,1.04.58,1.74.26,2.46-.99.55-.97,1.74-1.62,2.77-2.06,1.07-.46,1.44.46,1.33,1.54-.16,1.54.28,1.76,1.62,1.42,1.74-.44,3.54-.35,4.92-2.06.44-.54,1.51-.44,2.16-.59,3.12,3.64,3.58,8.04,3.87,12.64.76,12.23-1.83,23.57-6.9,34.26-4.03,8.49-9.38,15.85-15.81,22.21-11.09,10.94-24.05,17.53-38.4,20.87-.87.2-1.83-.06-2.75-.07-.75-.01-1.51.11-2.25.02-.79-.09-1.82-.06-2.31-.59-2.52-2.67-6.83-1.63-8.05,2.49-2.75-.22-5.62-.42-8.48-.72-.37-.04-.86-.51-1.03-.92-.65-1.55-1.7-1.66-3.04-1.46-.82.12-1.77.03-2.52-.34-1.62-.82-3.23-.8-4.94-.62-1.3.14-2.72.2-3.93-.23-8.83-3.12-16.93-7.79-23.71-14.99-5.26-5.59-9.84-11.84-12.97-19.23-3.36-7.93-5.44-16.28-5.3-25.16.03-1.68.37-3.57,1.13-4.98,1.5-2.78,2.18-6.21,4.95-8.06.64-.43.99-1.4,1.59-2.3-.51-.78-1.01-1.54-1.89-2.88-.27.9-.45,1.5-.66,2.19-.49-.62-.75-.84-.72-.93.31-.96.67-1.89,1-2.84.43-1.23.83-2.47,1.25-3.71.41-1.23.77-2.5,1.26-3.69.59-1.43,1.39-2.75,1.91-4.21.18-.49-.21-1.24-.41-2.25,3.66-1.69,5.55-5.58,7.83-9.25,1.58,1.67,2.92,1.09,4.17.04,1.83-1.53,3.62-3.12,5.41-4.71,1.39-1.24,2.84-2.2,4.73-2.13.59.02,1.27-.37,1.79-.77,1.18-.88,2.25-1.92,3.43-2.81.97-.73,1.8-1.5,3.23-.44,1.21.89,2.1-.58,2.82-1.59-.04-.19-.07-.38-.11-.57l-2.53.12c-.05-.11-.11-.21-.16-.32.98-.51,1.94-1.1,2.95-1.52.96-.4,1.54-.92,1.75-2.18.3-1.77,2.11-2.78,3.83-2.4v3.62c-1.09,1.1-2.36,2.38-3.62,3.65.12.19.23.37.35.56,2.16.21,3.26-2.06,4.88-2.97.87.22,1.7.53,2.56.61.51.05,1.39-.08,1.51-.41.96-2.55,3.56-1.88,5.07-3.35.41-.39,1.77-.43,1.92-.13,1.16,2.29,2.22.75,3.27,0,.37-.26.61-.75.9-1.13,2.99,1.22,4.09.9,4.66-1.59.68.27,1.34.58,2.02.8.67.22,1.37.35,2.53.63-.46-1.06-.7-1.61-.95-2.19.17-.03.36-.08.55-.09,1.72-.05,3.45-.09,5.17-.15.73-.03,1.46-.02,2.17-.16.43-.09.82-.45,1.23-.69-.34-.28-.77-.88-1.02-.8-1.59.54-3.54-1.06-4.89,1.01-.09.14-.69-.13-1.05-.21.15-.41.26-1.15.47-1.19,1.44-.27,2.9-.43,4.36-.57,1.56-.15,2.84.17,3.77,1.93.72,1.35,1.86.82,2.78-.02,1.32-1.21,2.81-1.59,4.5-1.53,1.35.05,2.43.22,2.29,2.45Z"/>
    <path d="m81.78,75.89c-1.07,3.04-3.77,4.27-6.4,3.09,2.12-1.02,4.09-1.98,6.4-3.09Z"/>
    <path d="m96.31,69.77c-1.24.96-2.5,1.91-3.73,2.89-.89.71-.88.73-2.48-.52,2.11-.93,4.15-1.83,6.18-2.73l.03.36Z"/>
  </g>
</svg>