<?xml version="1.0" encoding="UTF-8"?>
<svg id="Layer_1" data-name="Layer 1" xmlns="http://www.w3.org/2000/svg" width="200" height="200" viewBox="0 0 200 200">
  <path d="m141.22,72.87c5.59.64,10.62-.09,15.62-1.47,4.73-1.31,9.37-1.4,13.7,1.49.57.38,1.48.48,2.19.38,7.5-.96,14.98-1.98,22.47-2.98.14-.02.3.05.75.13-.67.42-1.11.84-1.63.98-2.25.63-3.15,2.66-4.63,4.11-1.23,1.2-3.27,1.76-5.05,2.18-4.89,1.16-9.86,1.97-14.74,3.15-4.1,1-8.1,2.39-12.18,3.49-2.15.58-4.37.87-6.55,1.34-1.42.31-2.82.71-3.77.95-.52,5.61-1.06,10.91-1.5,16.21-.22,2.62-1.08,4.86-3.31,6.37-1.93,1.31-2.81,3.07-3.2,5.39-.44,2.65-1.45,5.21-2.15,7.83-.18.66-.22,1.38-.16,2.06.43,5.12.85,10.25,1.39,15.36.35,3.31,1.55,4.15,4.87,4.06,1.04-.03,2.1.33,3.15.51,0,.22,0,.43.01.65-1.68.1-3.36.2-5.57.33.88.99,1.44,1.45,1.76,2.04.24.45.18,1.07.26,1.61-.48-.21-1.01-.35-1.42-.65-.54-.4-.93-1.02-1.49-1.39-1.51-.98-2.77-.84-3.57.98-.2.46-.62.82-.94,1.23-.22-.14-.44-.27-.66-.41.37-.68.65-1.44,1.13-2.03,1.27-1.56.45-2.19-1.05-2.57-.62-.16-1.24-.31-1.81-.95h3.86c-.16-9.44-2.67-18.26-4.49-26.8-5.75.59-11.66,1.2-17.81,1.83-.14,1.14-.04,2.85-.6,4.31-2.78,7.12-1.43,14.38-.86,21.6.17,2.15.73,4.33,1.46,6.36.24.67,1.56,1.14,2.47,1.34,1.72.38,3.51.5,5.31,1.23-.44.14-.88.39-1.32.4-2.83.06-5.66.14-8.49.03-.39-.02-1-1.01-1.06-1.6-.78-7.49-.61-15.21-2.49-22.4-1.25-4.79-2.49-9.49-3.02-14.4-.1-.97-.57-1.9-1.01-3.29-2.53,3.74-6.25,3-9.77,3.51v-1.74c-1.22.24-2.33.45-3.44.66-.17-.22-.34-.44-.51-.67,2.23-2.07,4.16-4.67,6.75-6.07,4.27-2.31,5.96-5.54,5.65-10.16-.07-1.06-.01-2.14-.01-3.16-.34-.09-.54-.22-.63-.16-5.64,3.6-11.94.91-17.85,1.9-2.64-2.21-5.9-.58-8.85-1.35-2.31-.61-5.05.4-7.59.68-.9.1-1.81.17-3.15.29.66-.79,1.02-1.23,1.4-1.68-.15-.06-.29-.17-.4-.15-2.7.56-5.37,1.43-8.1,1.64-6.03.47-12.08.76-18.13.83-7.3.09-14.61,0-21.9-.26-4.88-.18-9.73-.81-15.01-1.27,3.59-.58,6.83-1.1,10.66-1.72-3.67-.45-6.69-.82-9.72-1.19.01-.15.03-.3.04-.46,3.16-.39,6.33-.79,9.49-1.18.02-.09.04-.19.06-.28-3.93-.68-7.86-1.35-11.79-2.03l.06-.74c2.96-.19,5.93-.42,8.89-.57,12.7-.65,25.4-1.22,38.1-1.94,5.29-.3,10.59-.69,15.83-1.48,2.29-.34,4.45-1.7,6.62-2.71,8.41-3.89,17.18-4.39,26.3-3.64,4.49.37,9.21-.37,13.64-1.39,4.45-1.03,7.71-6.57,8.01-11.1.21-3.22.85-6.5,1.84-9.57,1.17-3.62,4.66-4.64,7.92-5.36,2.07-.45,4.32-.38,6.45-.13,4.33.51,6.93,3.52,6.73,7.91-.18,3.87-.76,7.73-1.15,11.59-.13,1.3-.2,2.61-.32,4.14Zm-7.79-14.96c2.91-.36,5.69-.71,8.55-1.07-3.09-3.17-5.66-.91-8.55,1.07Zm-18.58,23.7c-.12,1.52-.23,2.9-.34,4.28.26.07.53.15.79.22.35-1.35.7-2.7,1.1-4.24-.4-.07-.89-.15-1.56-.26Z"/>
  <path d="m121.42,152.93c-1.05-.18-2.1-.53-3.15-.51-3.32.09-4.52-.76-4.87-4.06-.08-.7-.14-1.4-.21-2.11-.29.11-.59.2-.88.31-.22.12-.43.24-.64.36.15,1.6.25,3.21.28,4.84h-3.86c.57.64,1.19.79,1.81.95,1.5.39,2.31,1.01,1.05,2.57-.48.59-.76,1.35-1.13,2.03.22.14.44.27.66.41.32-.41.73-.77.94-1.23.8-1.82,2.06-1.96,3.57-.98.56.36.95.99,1.49,1.39.41.3.94.44,1.42.65-.07-.54-.01-1.16-.26-1.61-.32-.59-.88-1.04-1.76-2.04,2.21-.13,3.89-.23,5.57-.33v-.65Z"/>
  <rect x="111.42" y="80.28" width="11.09" height="7.86"/>
</svg>