<?xml version="1.0" encoding="UTF-8"?>
<svg id="Layer_1" data-name="Layer 1" xmlns="http://www.w3.org/2000/svg" width="200" height="200" viewBox="0 0 200 200">
  <path d="m30.52,105.83c-6.15,0-12.31,0-18.46,0-.75,0-1.61.14-1.97-.83-.46-1.25.15-2.15,1.59-2.17,3.05-.04,6.1-.14,9.15.01,4.76.24,9.27-.93,13.68-2.36,4.89-1.59,9.66-3.55,14.47-5.41.62-.24,1.22-.74,1.65-1.27.8-.97,2.2-1.45,3.17-.61,2.47,2.13,5.55,2.67,8.49,3.56,6.9,2.09,13.93,3.69,21.09,4.58,2.89.36,5.82.36,8.74.49,2.71.12,5.42.28,8.12.28,2.71,0,5.42-.37,8.12-.25,10.67.49,20.9-1.83,31.06-4.64,2.19-.61,4.36-1.29,6.49-2.07,1.17-.43,2.26-1.08,3.33-1.73.94-.58,1.95-.9,2.74-.06,1.72,1.82,4.03,2.49,6.21,3.39,6.21,2.54,12.57,4.64,19.2,5.85.81.15,1.65.22,2.47.22,3.99.02,7.98.01,11.98.01.97,0,1.79.16,1.8,1.41,0,.84-.32,1.41-1.18,1.53-.6.08-1.22.08-1.82.08-11.7,0-23.4,0-35.09,0-.44,0-.89.02-1.33,0-1.06-.06-1.51.43-1.49,1.49.04,1.72.04,3.44.02,5.16-.02,1.81-.51,2.17-2.56,2.01-1.51-.12-1.81-.66-1.64-2.38.15-1.59.07-3.21.17-4.81.07-1.12-.59-1.6-1.47-1.93-.25-.09-.54-.08-.82-.09-2.12-.05-4.25-.11-6.37-.12-.6,0-1.19.18-1.79.19-.87.02-1.9.25-2.6-.12-1.44-.75-2.76-.38-4.18-.19-1.14.15-2.37.24-3.46-.03-2.15-.54-4.18-.38-6.35,0-2,.34-4.21.74-6.04-.85-.14-.12-.52-.2-.6-.12-1,.99-2.06.23-3.11.2-1.65-.06-3.3.06-4.95.05-4.62-.02-9.24-.08-13.86-.08-1.1,0-2.31.53-3.26.21-1.77-.59-3.09.65-4.63.67-1.48.02-2.96-.27-4.44-.31-1.41-.04-2.82.1-4.23.12-1.81.02-3.63.12-5.42-.04-1.01-.09-1.89-.18-2.88.24-.82.35-1.83.32-2.75.33-1.13.02-2.26-.09-3.4-.13-1.42-.05-2.86.02-4.27-.15-2.03-.25-2.88.39-2.9,2.49-.02,1.72.03,3.44,0,5.16-.03,1.51-.46,1.77-2.53,1.7-1.59-.05-1.94-.36-1.86-1.83.08-1.66.21-3.31.33-4.96.11-1.56-.13-1.85-1.73-1.86-6.21-.01-12.42,0-18.63,0Z"/>
</svg>