<?xml version="1.0" encoding="UTF-8"?>
<svg id="Layer_1" data-name="Layer 1" xmlns="http://www.w3.org/2000/svg" width="200" height="200" viewBox="0 0 200 200">
  <path d="m121.36,160.11c1.45-.75,2.9-1.5,4.35-2.25.06.17.13.34.19.51.88-1.38,1.73-2.78,2.65-4.13.9-1.32,2.38-2.27.98-4.38-.45-.67.92-2.55,1.78-4.67-1.75.18-3.14.11-4.36.51-.95.31-1.73,1.18-2.54,1.86-2.28,1.92-4.55,3.51-7.61,1.38-.6-.42-1.57-.31-2.72-.51.56,1.17.95,1.98,1.56,3.26-5.11-1.53-8.4,1.48-11.92,3.71-2.66,1.68-5.11,1.95-7.83.28,1.52,3.53-1.32,3-2.81,3.47.81,6.85,6.84,4.86,10.77,7.05-1.57.33-3.15.66-4.96,1.04,2.77,2.26,5.45,4.45,8.04,6.56-1.24.88-2.63.76-5.04-.72-1.62-1-3.26-1.98-5.07-2.54,11.23,9.37,23.8,11.65,37.78,6.5-2.32,3.2-5.35,4.51-8.86,4.89-1.85.21-3.73.21-5.55.53-5.65.99-11.23,1.05-16.23-2.11-15.2-9.61-25.74-23.2-33.08-39.45-.17-.38-.25-.8-.33-1.22-.03-.19.05-.4.09-.73.56.31,1.07.59,1.59.88.62,1.21,1.23,2.43,2.25,4.44.12-1.59.16-2.14.23-3.06,1.17,1.03,2.08,1.83,3.36,2.96.39-1.22.68-2.09,1.17-3.6-2.98,1.21-4.54-2.43-7.08-.64,1.03-3.15-1.66-4.74-2.47-7.11-.25.07-.51.13-.76.2.05,1.08.09,2.16.14,3.23-.18.09-.35.17-.53.26-1.76-3.82-3.93-7.52-5.21-11.49-3.19-9.93-6.61-19.85-8.75-30.02-2.19-10.41-6.27-20.08-9.48-30.1-1.38-4.3-2.42-8.58-2.13-13.26.59-9.51,8.75-20.56,17.86-23.32,10.39-3.15,20.42-2.16,29.81,3.28,4.38,2.53,7.54,6.31,9.63,11.04,1.13,2.55,2.68,5.03,4.49,7.15,3.92,4.59,4.48,10.04,4.98,15.68.24,2.66,1.07,5.33,2.02,7.85,1.03,2.75,2.34,5.43,3.81,7.97,2.54,4.37,5.43,8.55,7.97,12.92,4.6,7.94,9.17,15.9,13.53,23.97,4.06,7.51,7.89,15.15,11.71,22.79,3.32,6.65,3.08,13-2.03,18.8-1.18,1.34-2.21,2.81-3.54,4.51-1.32-.64-2.64-1.28-4.38-2.12,1.26-1.09,2.01-1.74,2.76-2.38-.05-.21-.11-.42-.16-.63-1,.15-2.12.08-2.99.5-2.98,1.43-5.52,4.54-9.38,1.52-.81-.63-2.67.23-3.99.04-1.32-.2-2.58-.86-3.87-1.32,0,0,.14.21.14.21Zm-42-26.01l-.13-.13c.7.43,1.39,1.2,2.11,1.22,3.27.13,6.55.09,9.82.04,1.6-.03,3.19-.22,4.79-.34.03.19.07.39.1.58-1,.5-2,.99-3.78,1.88,1.57-.16,2.32-.09,2.96-.32,4.37-1.52,8.74-3.03,13.05-4.69,1.53-.59,2.54-1.47,1.93-3.66-.53-1.91-.11-4.09-.11-6.36,2.72.83,3.89-.43,4.03-3.31-2.21.7-4.17,1.1-5.93,1.93-2.53,1.19-4.42,1.31-5.02-1.99-1.34.15-2.44.28-4.46.51,2.36-1.56,3.95-2.6,5.53-3.65-.09-.35-.18-.69-.27-1.04h-8c1.16-1.07,2.56-1.37,3.76-2.03,1.06-.59,1.9-1.59,2.84-2.41-.22-.24-.43-.49-.65-.73-6.3,3.41-11.92,8.46-19.46,8.14-.79-2.28-2.58-2.84-4.58-2.33-2.61.65-5.12,1.69-8.66,2.9,2.15.4,3.49.84,4.85.87,4.54.07,9.08-.21,13.6.05,2.16.12,4.28,1.15,5.93,1.63-1.72.48-4.15,1.15-6.59,1.83.02.34.04.68.06,1.01-.63-.92-1.25-1.83-2.02-2.95-2.12,1.09-4.16,2.14-6.29,3.25.54.41.92.7,1.85,1.41-4.05.1-6.93,1.42-8.46,5.24,1.24.1,2.44.2,3.8.3v2.56c1.25.22,2.32.41,3.4.59Zm-1.7-38.17c.17.53.33,1.06.5,1.6-2.59,1.1-5.18,2.2-7.84,3.32.53,3.01,2.05,4.26,5.12,3.67,3.15-.6,6.35-.96,9.52-1.42.05.15.11.3.16.45-1.7.83-3.4,1.66-5.26,2.57.83.9,1.38,1.5,2.68,2.9h-13.68c0,.13-.01.27-.02.4,1.04.13,2.07.25,3.54.43-.83.53-1.3.83-1.5.96,4.56.71,9.16,1.42,13.71,2.13.35,3.17,2.83,3.76,6.44,1.49-.93-.08-1.57-.13-2.79-.23,2.63-1.27,4.68-2.64,6.93-3.26,3.06-.83,4.62-3.22,4.95-5.63.28-2.1-1.28-4.45-2.26-7.35,1.69-.21,3.98-.5,6.15-.77-.69-.59-1.67-1.45-2.51-2.18.97-.92,1.89-1.63,2.54-2.54.13-.18-.78-1.6-1.15-1.57-1.1.07-2.18.55-3.24.93-.97.35-1.94,1.17-2.86,1.1-1.51-.12-2.98-.8-4.83-1.35-.05-.29-.2-1.26-.44-2.73-6.13,1.14-12.05,2.23-18.52,3.43,1.05.92,1.46,1.28,2.63,2.3-5.45.55-10.05,1.01-14.65,1.48-.01.28-.02.56-.04.84,2.71,0,5.44.13,8.14-.03,2.87-.17,5.73-.62,8.59-.94Zm6.81,54.16c.17.92,3.44,5.6,4.59,6.22,4.28,2.28,5.22-2.33,7.8-3.45,1.56.05,2.97-.3,4.33-.81.62-.23,1.11-1.1,1.7-1.13,5.24-.35,8.34-4.29,12.32-6.74l-.23-.98c-6.7,1.22-13.39,2.44-20.09,3.67-.06-.33-.13-.65-.19-.98,1.57-.56,3.1-1.27,4.71-1.65,3.27-.78,6.62-1.23,9.85-2.11,2.81-.76,3.17-2.46,1.68-3.88.98-1.7,1.88-3.26,3.02-5.24-2.86.82-5.07,1.35-7.21,2.08-3.77,1.28-7.47,2.77-11.26,3.98-1.79.57-3.72.93-5.59.95-1.19,0-2.38-.8-3.58-1.25,1.65,3.77-1.88,2.63-2.88,3.9,2.79.91,5.35,1.74,8.18,2.67-2.44,1.63-4.63,3.08-7.15,4.76Zm4.59-68.04c-1.23-.34-2.24-.32-2.51-.75-1.46-2.35-3.44-2.77-6.01-2.31-2.48.44-5.05.82-7.54.65-4.81-.34-9.57-1.31-14.38-1.59-2.06-.12-3.76,1.88-3.07,3.79.94,2.65,2.76,5.01,4.41,7.35.43.61,1.65.65,2.51.95l.47-.86c-1-.9-2.01-1.8-3-2.69,1.88-3.34,3.7-1.99,5.6-.19-.31.71-.64,1.45-1.13,2.57,2.33.38,4.4,1.06,6.44.97,4.49-.2,8.98-.62,13.43-1.27,2.41-.35,4.97-.99,7-2.24,1.26-.78,4.58.19,3.68-3.63-1.59.55-3.01,1.16-4.49,1.53-1.6.4-3.26.57-5.39.93,1.53-1.22,2.63-2.1,4-3.19Zm-2.09-9.03c-1.96-.39-4.15-.19-5.31-1.19-3.69-3.14-10.24-3.85-14.91-.93,1.03,1.26,2.04,2.5,3.04,3.72-1.16.68-2.09,1.22-3.01,1.77.09.3.18.6.27.91,4.05,0,8.1.04,12.14-.05.5,0,.98-.64,1.47-.99,1.13-.81,2.2-1.75,3.42-2.41.87-.47,1.95-.57,2.9-.83Zm-34.38,4.33c-.42.11-.85.21-1.27.32,1.81,7.46,2.49,15.2,5.42,22.38.34-.09.68-.17,1.02-.26-1.72-7.48-3.45-14.96-5.17-22.44Zm12.22,46.92c.28-.12.55-.23.83-.35-1.72-5.77-3.44-11.54-5.16-17.3-.39.12-.77.24-1.16.36,1.99,5.71,1.46,12.2,5.49,17.29Zm-1.48-58.46c4.39,2.26,11.64,1.44,13.24-1.48-4.4.49-8.66.97-13.24,1.48Zm56.3,56.7c-.1-.16-.2-.32-.3-.48-2.26,1.02-4.51,2.05-6.73,3.06,1.28.98,2.14,1.64,2.4,1.84,1.61-1.54,3.12-2.98,4.63-4.42Zm-40.53,30.65c.41-.21.82-.41,1.24-.62-1.32-2.74-2.65-5.48-3.97-8.22-.36.18-.72.35-1.08.53,1.27,2.77,2.54,5.54,3.82,8.31Zm-15.12-42.77c2.21,1.38,3.49,2.18,4.77,2.98.26-.28.53-.56.79-.85-.72-.97-1.29-2.16-2.23-2.83-.47-.33-1.61.3-3.34.7Zm18.11-69.83c-.07.36-.15.71-.22,1.07,1.79,2.68,4.05.43,6.17-.13-1.98-.31-3.96-.63-5.94-.94Zm-17.83,31.94c-2.07,1.49-3.52,2.54-5.37,3.87,3.23.81,4.78-.09,5.37-3.87Z"/>
  <path d="m116.4,157.81v-4.18c1.38-.07,2.56-.13,3.75-.2.17.32.34.64.52.96-1.21.97-2.42,1.94-4.27,3.42Z"/>
  <path d="m121.36,160.11s-.15-.21-.14-.21c-.6,1.3-1.21,2.59-2.11,4.54-.9-1.2-1.44-1.93-1.98-2.65,1.41-.56,2.83-1.12,4.24-1.68Z"/>
  <path d="m116.09,174.9c-.02.18.05,1.36-.21,1.43-1.69.5-3.45.77-5.19,1.11-.06-.31-.11-.62-.17-.94,1.66-.48,3.31-.95,5.57-1.6Z"/>
  <path d="m79.36,134.1c1.04-4.03,2.68-5.12,5.8-4.04-1.92,1.27-3.92,2.59-5.93,3.91,0,0,.13.13.13.13Z"/>
  <path d="m83.16,123.35c4.06,3.24,8.4.84,12.74,1.39-1.61.41-3.22.84-4.84,1.21-1.12.26-2.3.32-3.38.67-1.05.34-2,.96-3.01,1.41-.1.05-.43-.16-.5-.32-.51-1.23-.97-2.48-1.45-3.72.15-.21.29-.42.44-.63Z"/>
</svg>