<?xml version="1.0" encoding="UTF-8"?>
<svg id="Layer_1" data-name="Layer 1" xmlns="http://www.w3.org/2000/svg" width="200" height="200" viewBox="0 0 200 200">
  <path d="m78.11,98.19s1.2.06,2.35-.01c2.69-.16,3.98-1.07,2.73-4.12-1.65-4.02-1.67-8.12.44-13.43,1.16,2.54,1.46,4.16,2.42,5.06,1.32,1.23,3.15,1.9,4.76,2.82.61-1.91,2.23-4.24,1.65-5.67-2.46-6.01-2.74-13.34-9.81-16.89-1.53-.76-2.1-3.44-3.83-6.51,6.02,0,10.73.1,15.43-.03,4.98-.14,9.98-.28,14.93-.81,4.84-.51,9.2-.5,12.14,4.31,3.01,4.92,7.07,7.37,13.16,5.58,3.08-.91,5.54.61,7.76,3.13,3.82,4.35,8.2,8.21,12.16,12.44,2.03,2.17,4.11,4.67-.32,7.4,11.56,7.94,22.94,15.34,28.92,27.73-6.28,1.8-11.85,3.51-17.49,4.98-4.25,1.11-7.87.72-10.88-3.43-4.94-6.82-10.47-13.2-16.78-21.04-.68,1.46-1.3,2.32-1.47,3.25-1.04,5.94-5.15,7.16-10.39,7.45-4.61.25-9.19,1.18-13.78,1.89-7.92,1.23-11.39-1.55-12.14-10.76-5.76.57-11.51,1.14-17.55,1.74,5.87,10.74,11.37,20.79,17.56,32.12-5.85.88-10,1.78-14.19,1.95-1.19.05-2.82-1.83-3.63-3.19-2.28-3.83-4.1-7.93-6.38-11.75-.85-1.42-2.49-2.38-3.76-3.55-.55.33-1.11.66-1.66.99,3.05,6.27,6.09,12.53,9.39,19.32-5.16.86-9.52,1.83-13.94,2.2-1.43.12-3.81-.96-4.37-2.14-4.79-10.18-9.25-20.51-13.68-30.51.44-.75.54-1.13.78-1.29,1.54-1.03,3.12-2.01,4.68-3-1.64-1.14-3.27-2.3-4.94-3.41-1.22-.81-3.08-1.26-3.64-2.38-3.81-7.64-7.35-15.41-11.35-23.93,2.94-.15,4.71-.23,6.48-.33,4.83-.29,9.66-.74,14.49-.82,1.68-.03,3.38.83,5.17,1.31,1.47-2.95,4.28-3.55,6.03-.75,3.96,6.31,7.82,12.68,11.53,19.14.76,1.32.68,3.13,1.04,4.96Zm34.1-26.39c.16.75.31,1.51.47,2.26-2.28.63-4.53,1.48-6.85,1.84-6.42.98-8.55,4.3-5.28,9.91,1.59,2.73,5.24,4.19,7.31,6.74,4.02,4.94,7.22,1.11,11.14.21q-5.91-9.47-3.27-12.92c2.56,3.18,5.68,5.89,7.28,9.32,2.21,4.7,4.86,4.37,8.72,2.43-4.89-6.32-9.93-12.19-14.19-18.59-2.66-4-5.84-5.81-10.35-5.44-1.46.12-2.85,1.09-4.27,1.67,1.38.7,2.69,1.65,4.15,2.04,1.64.44,3.42.38,5.14.53Z"/>
</svg>