<?xml version="1.0" encoding="UTF-8"?>
<svg id="Layer_1" data-name="Layer 1" xmlns="http://www.w3.org/2000/svg" width="200" height="200" viewBox="0 0 200 200">
  <path d="m101.99,47.21c3.17.71,6.42,1.21,9.51,2.19,4.88,1.55,9.7,3.08,14.91,3.1,1.52,0,3.26.48,4.52,1.31,3.65,2.42,7.49,3.55,11.92,3.65,1.98.05,4.3,1.45,5.79,2.91,4.88,4.78,9.26,10.06,14.22,14.74,1.96,1.85,4.82,3.04,7.48,3.79,4,1.13,6.86,3.27,8.65,6.94.11.22.17.52.35.65,4.5,3.33,4.52,8.18,4.58,13.06.01.98.16,2.08.63,2.91,2.82,4.91,2.09,10.56,3.26,15.81.48,2.15-.96,4.99-2.17,7.16-1.73,3.1-4.39,5.7-6.03,8.83-2.4,4.59-6.62,5.44-10.98,6.4-2.01.44-3.98,1.07-5.98,1.59-2.09.54-4.23.93-6.28,1.61-3.96,1.3-7.81,2.98-11.82,4.09-3.89,1.08-7.79,1.88-12.02,1.24-3.09-.47-6.68-.25-9.55.89-8.15,3.23-16.53,1.7-24.81,2.1-.41.02-.86-.03-1.23-.18-6.83-2.67-14.1-2.55-21.22-3.39-2.19-.26-4.29-1.28-6.42-2-4.72-1.59-9.67-2.74-14.09-4.93-7.09-3.52-13.89-7.64-20.65-11.77-1.52-.93-2.45-2.88-3.54-4.44-3.68-5.3-7.67-10.33-13.52-13.37-2.3-1.19-4.7-1.91-4.06-5.23.05-.27-.19-.63-.34-.91-1.39-2.53-.72-4.96,1.75-6.55,3.79-2.44,7.77-4.66,11.27-7.46,3.65-2.92,7.87-2.87,12.06-3.43,6.49-.86,11.75-3.52,14.41-9.99.41-.99,1.28-2,2.21-2.53,5.22-2.93,9.17-7.14,12.8-11.8,4.32-5.54,9.54-10.07,16.44-12.16,5.35-1.62,10.77-3.03,16.16-4.5.55-.15,1.16-.08,1.75-.11.02-.08.04-.15.06-.23Z"/>
</svg>